# Blender 5.1.2
# www.blender.org
mtllib Famasbody21.mtl
o Famasbody
v 1.040318 -0.080882 -0.122405
v 1.040318 -0.080882 0.096589
v 1.107807 0.321163 0.150575
v 1.107807 0.321163 -0.176909
v -0.027392 0.739753 0.051087
v -0.027392 0.739753 0.025575
v 0.049743 0.639388 0.051087
v 0.049743 0.639388 0.025575
v 0.049743 0.389753 0.051087
v 0.049743 0.389753 0.025575
v -0.027392 0.739753 -0.076903
v -0.027392 0.739753 -0.051421
v 0.049743 0.639388 -0.051421
v 0.049743 0.639388 -0.076903
v 0.049743 0.389753 -0.076903
v 0.049743 0.389753 -0.051421
v 1.040607 0.512328 0.091584
v 1.040607 0.512328 -0.117919
v 1.107807 0.321163 -0.176909
v 1.107807 0.321163 0.150575
v 0.013408 0.612098 -0.051421
v 0.013408 0.612098 0.025575
v 0.013408 0.389753 0.025575
v 0.013408 0.389753 -0.051421
v -0.023554 -0.214232 -0.100402
v -0.131458 0.246998 -0.100402
v -0.131458 0.246998 0.074586
v -0.023554 -0.214232 0.074586
v -0.016113 -0.245977 0.074586
v -0.016113 -0.245977 -0.100402
v -0.001233 -0.309472 0.074586
v -0.001233 -0.309472 -0.100402
v -1.188991 0.632703 0.051087
v -1.188991 0.632703 -0.076903
v -1.242224 0.554243 0.051087
v -1.242224 0.554243 -0.076903
v -1.242224 0.417198 0.051087
v -1.242224 0.417198 -0.076903
v -1.294592 0.701413 0.051087
v -0.027392 0.739753 0.051087
v -1.294592 0.701413 0.025575
v -0.027392 0.739753 0.025575
v -1.294592 0.701413 -0.076903
v -1.294592 0.701413 -0.051421
v -0.027392 0.739753 -0.076903
v -0.027392 0.739753 -0.051421
v 0.032608 0.421163 -0.102416
v -0.111393 0.421163 -0.102416
v 0.032608 0.421163 0.076600
v 0.099808 0.421163 0.076600
v 0.099808 0.421163 -0.102416
v -0.111393 0.421163 0.076600
v 0.147807 0.421163 0.076600
v 0.147807 0.421163 -0.102416
v 0.228447 0.421163 0.076600
v 0.228447 0.421163 -0.102416
v 0.282206 0.421163 0.076600
v 0.282206 0.421163 -0.102416
v 0.442288 0.421163 0.076600
v 0.442288 0.421163 -0.102416
v 0.619406 0.421163 0.076600
v 0.619406 0.421163 -0.102416
v 0.716800 0.512328 0.091584
v 0.716800 0.512328 -0.117919
v 0.894207 0.512328 0.091584
v 0.894207 0.512328 -0.117919
v 1.040607 0.512328 0.091584
v 1.040607 0.512328 -0.117919
v -0.047698 0.651713 -0.051421
v -1.332608 0.631058 -0.051421
v -1.332608 0.631058 0.025575
v -0.047698 0.651713 0.025575
v 0.013408 0.612098 -0.051421
v 0.013408 0.612098 0.025575
v -0.149794 0.421163 -0.062926
v -0.435871 0.421163 -0.102416
v -0.435871 0.421163 -0.062926
v -0.802591 0.421163 -0.062926
v -1.359393 0.421163 -0.102416
v -0.149794 0.421163 0.037080
v -1.359393 0.421163 0.076600
v -0.802591 0.421163 0.037080
v -0.435871 0.421163 0.076600
v -0.435871 0.421163 0.037080
v -0.442591 0.321163 0.127076
v -1.320992 0.170253 0.080598
v -0.422431 0.120413 0.080598
v -1.378593 0.321163 0.127076
v -0.111393 0.201163 0.080598
v -0.111393 0.321163 0.127076
v 0.032608 0.201163 0.099092
v 0.032608 0.321163 0.127076
v 0.099808 0.321163 0.127076
v 0.099808 0.161163 0.099092
v 0.147807 0.321163 0.127076
v 0.147807 0.031163 0.080598
v 0.199648 0.031163 0.080598
v 0.228447 0.321163 0.127076
v 0.282206 0.321163 0.127076
v 0.442288 0.130223 0.080598
v 0.442288 0.321163 0.127076
v 0.619406 0.321163 0.127076
v 0.619406 -0.022587 0.080598
v 0.716800 0.321163 0.150575
v 0.716800 -0.087652 0.096589
v 0.836031 -0.086952 0.096589
v 0.894207 0.321163 0.150575
v 1.040318 -0.080882 0.096589
v 1.107807 0.321163 0.150575
v -0.435871 0.421163 0.076600
v -1.359393 0.421163 0.076600
v -0.442591 0.321163 0.127076
v -1.378593 0.321163 0.127076
v -0.111393 0.321163 0.127076
v -0.111393 0.421163 0.076600
v 0.032608 0.321163 0.127076
v 0.032608 0.421163 0.076600
v 0.099808 0.321163 0.127076
v 0.099808 0.421163 0.076600
v 0.147807 0.321163 0.127076
v 0.147807 0.421163 0.076600
v 0.228447 0.321163 0.127076
v 0.228447 0.421163 0.076600
v 0.282206 0.321163 0.127076
v 0.282206 0.421163 0.076600
v 0.442288 0.321163 0.127076
v 0.442288 0.421163 0.076600
v 0.619406 0.321163 0.127076
v 0.619406 0.421163 0.076600
v 0.716800 0.321163 0.150575
v 0.716800 0.512328 0.091584
v 0.894207 0.321163 0.150575
v 0.894207 0.512328 0.091584
v 1.040607 0.512328 0.091584
v 1.107807 0.321163 0.150575
v -0.131458 0.246998 0.074586
v -0.310447 -0.287072 0.074586
v -0.023554 -0.214232 0.074586
v -0.418351 0.174158 0.074586
v -0.016113 -0.245977 0.074586
v -0.333489 -0.326552 0.074586
v -0.318658 -0.390047 0.074586
v -0.001233 -0.309472 0.074586
v -1.351618 0.599638 0.051087
v -1.242224 0.554243 0.051087
v -1.294592 0.701413 0.051087
v -1.351618 0.417198 0.051087
v -1.242224 0.417198 0.051087
v -1.188991 0.632703 0.051087
v -0.027392 0.739753 0.051087
v -0.122863 0.624753 0.051087
v 0.049743 0.639388 0.051087
v -0.070063 0.559753 0.051087
v 0.049743 0.389753 0.051087
v -0.070063 0.389753 0.051087
v -0.027392 0.739753 -0.051421
v -1.294592 0.701413 -0.051421
v -0.047698 0.651713 -0.051421
v -1.332608 0.631058 -0.051421
v 0.049743 0.639388 -0.051421
v 0.013408 0.612098 -0.051421
v 0.049743 0.389753 -0.051421
v 0.013408 0.389753 -0.051421
v -1.351618 0.417198 -0.076903
v -1.351618 0.599638 0.051087
v -1.351618 0.599638 -0.076903
v -1.351618 0.417198 0.051087
v -1.378593 0.321163 -0.152923
v -1.378593 0.321163 0.127076
v -1.359393 0.421163 -0.102416
v -1.359393 0.421163 0.076600
v -1.320992 0.170253 -0.106414
v -1.320992 0.170253 0.080598
v -0.318658 -0.390047 -0.100402
v -0.333489 -0.326552 0.074586
v -0.333489 -0.326552 -0.100402
v -0.318658 -0.390047 0.074586
v -0.418351 0.174158 -0.100402
v -0.310447 -0.287072 -0.100402
v -0.310447 -0.287072 0.074586
v -0.418351 0.174158 0.074586
v -1.294592 0.701413 0.051087
v -1.294592 0.701413 0.025575
v -1.332608 0.631058 0.025575
v -1.351618 0.599638 0.051087
v -1.351618 0.599638 -0.076903
v -1.332608 0.631058 -0.051421
v -1.294592 0.701413 -0.076903
v -1.294592 0.701413 -0.051421
v 0.099808 0.161163 -0.125426
v 0.099808 0.161163 0.099092
v 0.147807 0.031163 -0.106414
v 0.147807 0.031163 0.080598
v -0.333489 -0.326552 -0.100402
v -0.310447 -0.287072 0.074586
v -0.310447 -0.287072 -0.100402
v -0.333489 -0.326552 0.074586
v -0.070063 0.559753 -0.076903
v -0.070063 0.389753 -0.076903
v -0.070063 0.389753 0.051087
v -0.070063 0.559753 0.051087
v -0.122863 0.624753 0.051087
v -0.122863 0.624753 -0.076903
v -0.318658 -0.390047 -0.100402
v -0.001233 -0.309472 -0.100402
v -0.001233 -0.309472 0.074586
v -0.318658 -0.390047 0.074586
v 0.442288 0.130223 -0.106414
v 0.199648 0.031163 0.080598
v 0.199648 0.031163 -0.106414
v 0.147807 0.031163 0.080598
v 0.147807 0.031163 -0.106414
v 0.442288 0.130223 0.080598
v 0.619406 -0.022587 -0.106414
v 0.619406 -0.022587 0.080598
v 0.716800 -0.087652 -0.122405
v 0.716800 -0.087652 0.096589
v 0.836031 -0.086952 -0.122405
v 0.836031 -0.086952 0.096589
v 1.040318 -0.080882 -0.122405
v 1.040318 -0.080882 0.096589
v -1.320992 0.170253 -0.106414
v -0.422431 0.120413 -0.106414
v -0.422431 0.120413 0.080598
v -1.320992 0.170253 0.080598
v -0.422431 0.120413 -0.106414
v -0.111393 0.201163 -0.106414
v -0.111393 0.201163 0.080598
v -0.422431 0.120413 0.080598
v 0.032608 0.201163 -0.125426
v 0.032608 0.201163 0.099092
v 0.099808 0.161163 -0.125426
v 0.099808 0.161163 0.099092
v 0.049743 0.389753 -0.076903
v 0.013408 0.389753 -0.051421
v -0.070063 0.389753 -0.076903
v 0.049743 0.389753 -0.051421
v -0.070063 0.389753 0.051087
v 0.013408 0.389753 0.025575
v 0.049743 0.389753 0.051087
v 0.049743 0.389753 0.025575
v -1.351618 0.417198 -0.076903
v -1.242224 0.417198 -0.076903
v -1.351618 0.417198 0.051087
v -1.242224 0.417198 0.051087
v -0.122863 0.624753 0.051087
v -0.122863 0.624753 -0.076903
v -1.188991 0.632703 0.051087
v -1.188991 0.632703 -0.076903
v -0.442591 0.321163 -0.152923
v -0.111393 0.201163 -0.106414
v -0.422431 0.120413 -0.106414
v -1.320992 0.170253 -0.106414
v -1.378593 0.321163 -0.152923
v -0.111393 0.321163 -0.152923
v 0.032608 0.321163 -0.152923
v 0.032608 0.201163 -0.125426
v 0.099808 0.321163 -0.152923
v 0.099808 0.161163 -0.125426
v 0.147807 0.321163 -0.152923
v 0.147807 0.031163 -0.106414
v 0.199648 0.031163 -0.106414
v 0.228447 0.321163 -0.152923
v 0.282206 0.321163 -0.152923
v 0.442288 0.130223 -0.106414
v 0.442288 0.321163 -0.152923
v 0.619406 0.321163 -0.152923
v 0.619406 -0.022587 -0.106414
v 0.716800 0.321163 -0.176909
v 0.716800 -0.087652 -0.122405
v 0.836031 -0.086952 -0.122405
v 0.894207 0.321163 -0.176909
v 1.040318 -0.080882 -0.122405
v 1.107807 0.321163 -0.176909
v -0.435871 0.421163 -0.102416
v -0.111393 0.321163 -0.152923
v -0.442591 0.321163 -0.152923
v -1.359393 0.421163 -0.102416
v -1.378593 0.321163 -0.152923
v -0.111393 0.421163 -0.102416
v 0.032608 0.421163 -0.102416
v 0.032608 0.321163 -0.152923
v 0.099808 0.421163 -0.102416
v 0.099808 0.321163 -0.152923
v 0.147807 0.421163 -0.102416
v 0.147807 0.321163 -0.152923
v 0.228447 0.421163 -0.102416
v 0.228447 0.321163 -0.152923
v 0.282206 0.421163 -0.102416
v 0.282206 0.321163 -0.152923
v 0.442288 0.421163 -0.102416
v 0.442288 0.321163 -0.152923
v 0.619406 0.421163 -0.102416
v 0.619406 0.321163 -0.152923
v 0.716800 0.321163 -0.176909
v 0.716800 0.512328 -0.117919
v 0.894207 0.512328 -0.117919
v 0.894207 0.321163 -0.176909
v 1.040607 0.512328 -0.117919
v 1.107807 0.321163 -0.176909
v -0.131458 0.246998 -0.100402
v -0.310447 -0.287072 -0.100402
v -0.418351 0.174158 -0.100402
v -0.023554 -0.214232 -0.100402
v -0.016113 -0.245977 -0.100402
v -0.333489 -0.326552 -0.100402
v -0.318658 -0.390047 -0.100402
v -0.001233 -0.309472 -0.100402
v -0.070063 0.559753 -0.076903
v 0.049743 0.639388 -0.076903
v 0.049743 0.389753 -0.076903
v -0.070063 0.389753 -0.076903
v -0.122863 0.624753 -0.076903
v -0.027392 0.739753 -0.076903
v -1.188991 0.632703 -0.076903
v -1.294592 0.701413 -0.076903
v -1.242224 0.554243 -0.076903
v -1.351618 0.599638 -0.076903
v -1.351618 0.417198 -0.076903
v -1.242224 0.417198 -0.076903
v -0.047698 0.651713 0.025575
v -1.294592 0.701413 0.025575
v -0.027392 0.739753 0.025575
v -1.332608 0.631058 0.025575
v 0.049743 0.639388 0.025575
v 0.013408 0.612098 0.025575
v 0.049743 0.389753 0.025575
v 0.013408 0.389753 0.025575
v 1.127007 0.319753 -0.188415
v 1.127007 0.319753 0.162599
v 1.069937 -0.094032 -0.135924
v 1.069937 -0.094032 0.110078
v 1.050206 0.519753 -0.126922
v 1.050206 0.519753 0.100587
v 1.127007 0.319753 -0.188415
v 0.564496 0.428223 0.083589
v 0.564496 0.320803 -0.165404
v 0.564496 0.428223 -0.109923
v 0.564496 0.320803 0.139100
v 0.381519 0.192648 -0.132415
v 0.381519 0.264648 0.124574
v 0.381519 0.192648 0.106080
v 0.381519 0.264648 -0.150908
v -0.068338 0.739773 -0.035399
v -0.068338 0.739773 0.009095
v -0.068338 0.731368 -0.012908
v -0.068338 0.723683 0.005586
v -0.068338 0.723683 -0.031402
v -0.068338 0.727118 0.022096
v -0.068338 0.727118 -0.047912
v -0.068338 0.705128 0.013093
v -0.068338 0.705128 -0.039397
v -0.068338 0.661648 0.022096
v -0.068338 0.661648 -0.047912
v -0.068338 0.686573 0.005586
v -0.068338 0.686573 -0.031402
v -0.068338 0.678888 -0.012908
v -0.503217 0.141838 -0.100402
v -0.558079 0.045438 -0.056914
v -0.546752 0.064373 -0.100402
v -0.503217 0.141838 0.074586
v -0.558079 0.045438 0.031098
v -0.546752 0.064373 0.074586
v -0.060274 0.669528 0.023591
v -0.060274 0.669528 -0.049407
v -0.052833 0.650808 0.023591
v -0.052833 0.650808 -0.049407
v -0.060274 0.632088 0.023591
v -0.060274 0.632088 -0.049407
v -1.257055 0.613103 -0.049407
v -1.257055 0.613103 0.023103
v -1.250914 0.628643 -0.049407
v -1.250914 0.628643 0.023103
v -1.257055 0.644188 -0.049407
v -1.257055 0.644188 0.023103
v -0.802591 0.421163 -0.062926
v -0.802591 0.406153 0.037080
v -0.802591 0.406153 -0.062926
v -0.802591 0.421163 0.037080
v -1.261904 0.699698 0.022096
v -1.261904 0.681143 0.005586
v -1.261904 0.699698 0.013093
v -1.261904 0.645953 0.022096
v -1.261904 0.673458 -0.012908
v -1.261904 0.645953 -0.048400
v -1.261904 0.681143 -0.031402
v -1.261904 0.699698 -0.048400
v -1.261904 0.699698 -0.039397
v -1.268671 0.699278 -0.012420
v -1.268671 0.662833 -0.024413
v -1.268671 0.699278 -0.013427
v -1.268671 0.662833 -0.001403
v -1.634673 0.257113 -0.067412
v -1.634673 0.252963 -0.012908
v -1.634673 0.234343 -0.012908
v -1.634673 0.257113 0.041078
v -1.634673 0.270273 -0.054900
v -1.634673 0.270273 0.028596
v -1.634673 0.312078 0.063600
v -1.634673 0.312078 0.046083
v -1.634673 0.312078 -0.089904
v -1.634673 0.312078 -0.071898
v -1.634673 0.353878 -0.054900
v -1.634673 0.367043 -0.067412
v -1.634673 0.371193 -0.012908
v -1.634673 0.389808 -0.012908
v -1.634673 0.367043 0.041078
v -1.634673 0.353878 0.028596
v -1.634673 0.312078 0.063600
v -1.634673 0.312078 0.046083
v -0.087202 0.739773 -0.035399
v -0.087202 0.739773 0.009095
v -0.068338 0.739773 -0.035399
v -0.068338 0.739773 0.009095
v -0.087202 0.686573 0.005586
v -0.068338 0.686573 0.005586
v -0.087202 0.678888 -0.012908
v -0.068338 0.678888 -0.012908
v -0.087202 0.686573 -0.031402
v -0.068338 0.686573 -0.031402
v -1.280767 0.699698 -0.048400
v -1.261904 0.699698 -0.039397
v -1.261904 0.699698 -0.048400
v -1.280767 0.699698 -0.039397
v -1.280767 0.699698 0.022096
v -1.261904 0.699698 0.022096
v -1.280767 0.699698 0.013093
v -1.261904 0.699698 0.013093
v -1.268671 0.699278 -0.013427
v -1.275201 0.699278 -0.013427
v -1.275201 0.699278 -0.012420
v -1.268671 0.699278 -0.012420
v -1.280767 0.681143 0.005586
v -1.261904 0.681143 0.005586
v -1.280767 0.673458 -0.012908
v -1.261904 0.673458 -0.012908
v -1.280767 0.681143 -0.031402
v -1.261904 0.681143 -0.031402
v -1.701152 0.272798 -0.051909
v -1.907120 0.272798 -0.051909
v -1.701152 0.256528 -0.012908
v -1.907120 0.256528 -0.012908
v -1.701152 0.272798 0.025575
v -1.907120 0.272798 0.025575
v -1.311968 0.353878 -0.054900
v -1.634673 0.353878 -0.054900
v -1.311968 0.371193 -0.012908
v -1.634673 0.371193 -0.012908
v -1.311968 0.353878 0.028596
v -1.634673 0.353878 0.028596
v -0.087202 0.727118 0.022096
v -0.068338 0.727118 0.022096
v -0.068338 0.739773 0.009095
v -0.087202 0.739773 0.009095
v -0.068338 0.727118 -0.047912
v -0.087202 0.727118 -0.047912
v -0.087202 0.739773 -0.035399
v -0.068338 0.739773 -0.035399
v 0.925408 0.519753 -0.126922
v 0.925408 0.519753 0.100587
v 1.050206 0.519753 -0.126922
v 1.050206 0.519753 0.100587
v -1.907120 0.367043 -0.067412
v -1.634673 0.367043 -0.067412
v -1.907120 0.389808 -0.012908
v -1.634673 0.389808 -0.012908
v -1.907120 0.367043 0.041078
v -1.634673 0.367043 0.041078
v -0.078226 0.677283 -0.049407
v -0.060274 0.669528 0.023591
v -0.060274 0.669528 -0.049407
v -0.078226 0.677283 0.023591
v -0.096225 0.669528 0.023591
v -0.096225 0.669528 -0.049407
v -0.078226 0.677283 0.023591
v -0.078226 0.677283 -0.049407
v -1.286912 0.644188 -0.049407
v -1.271985 0.650628 0.023103
v -1.271985 0.650628 -0.049407
v -1.286912 0.644188 0.023103
v -1.257055 0.644188 -0.049407
v -1.257055 0.644188 0.023103
v -1.271985 0.650628 -0.049407
v -1.271985 0.650628 0.023103
v 0.564496 0.428223 -0.109923
v 0.107007 0.428223 -0.109923
v 0.107007 0.428223 0.083589
v 0.564496 0.428223 0.083589
v -0.802591 0.406153 -0.062926
v -0.149794 0.406153 0.037080
v -0.149794 0.406153 -0.062926
v -0.802591 0.406153 0.037080
v -0.087202 0.686573 -0.031402
v -0.068338 0.686573 -0.031402
v -0.068338 0.705128 -0.039397
v -0.087202 0.705128 -0.039397
v -0.068338 0.723683 -0.031402
v -0.087202 0.723683 -0.031402
v -1.280767 0.681143 -0.031402
v -1.261904 0.681143 -0.031402
v -1.261904 0.699698 -0.039397
v -1.280767 0.699698 -0.039397
v 1.002206 0.319753 0.162599
v 0.944847 -0.098742 0.110078
v 1.069937 -0.094032 0.110078
v 1.127007 0.319753 0.162599
v -1.701152 0.351353 -0.051909
v -1.907120 0.351353 -0.051909
v -1.701152 0.312078 -0.067901
v -1.907120 0.312078 -0.067901
v -1.701152 0.272798 -0.051909
v -1.907120 0.272798 -0.051909
v -1.634673 0.270273 0.028596
v -1.311968 0.270273 0.028596
v -1.634673 0.312078 0.046083
v -1.311968 0.312078 0.046083
v -1.311968 0.353878 0.028596
v -1.634673 0.353878 0.028596
v -1.311968 0.312078 0.046083
v -1.634673 0.312078 0.046083
v 1.127007 0.319753 0.162599
v 1.050206 0.519753 0.100587
v 1.002206 0.319753 0.162599
v 0.925408 0.519753 0.100587
v 0.564496 0.428223 0.083589
v 0.107007 0.428223 0.083589
v 0.564496 0.320803 0.139100
v 0.107007 0.320803 0.139100
v 0.381519 0.264648 0.124574
v 0.289985 0.264648 0.124574
v 0.564496 0.320803 0.139100
v 0.289985 0.192648 0.106080
v 0.381519 0.192648 0.106080
v 0.289985 0.264648 0.124574
v -0.546752 0.064373 0.074586
v -1.296320 0.180843 0.074586
v -1.299920 0.101413 0.074586
v -0.503217 0.141838 0.074586
v -0.087202 0.727118 0.022096
v -0.087202 0.661648 0.022096
v -0.068338 0.661648 0.022096
v -0.068338 0.727118 0.022096
v -1.275201 0.699278 -0.012420
v -1.275201 0.662833 -0.001403
v -1.268671 0.662833 -0.001403
v -1.268671 0.699278 -0.012420
v -0.103666 0.650808 0.023591
v -0.060274 0.669528 0.023591
v -0.096225 0.669528 0.023591
v -0.078226 0.677283 0.023591
v -0.078226 0.624338 0.023591
v -0.096225 0.632088 0.023591
v -0.060274 0.632088 0.023591
v -0.052833 0.650808 0.023591
v -1.293105 0.628643 0.023103
v -1.271985 0.606663 0.023103
v -1.286912 0.644188 0.023103
v -1.286912 0.613103 0.023103
v -1.257055 0.644188 0.023103
v -1.271985 0.650628 0.023103
v -1.250914 0.628643 0.023103
v -1.257055 0.613103 0.023103
v -1.261904 0.645953 0.022096
v -1.280767 0.699698 0.022096
v -1.280767 0.645953 0.022096
v -1.261904 0.699698 0.022096
v -1.907120 0.257113 0.041078
v -1.634673 0.257113 0.041078
v -1.634673 0.312078 0.063600
v -1.907120 0.312078 0.063600
v -1.907120 0.367043 0.041078
v -1.634673 0.367043 0.041078
v -1.907120 0.312078 0.063600
v -1.634673 0.312078 0.063600
v -0.802591 0.406153 -0.062926
v -0.149794 0.406153 -0.062926
v -0.435871 0.421163 -0.062926
v -0.149794 0.421163 -0.062926
v -0.802591 0.421163 -0.062926
v -1.907120 0.367628 -0.012908
v -1.907120 0.367043 0.041078
v -1.907120 0.389808 -0.012908
v -1.907120 0.367043 -0.067412
v -1.907120 0.351353 0.025575
v -1.907120 0.312078 0.063600
v -1.907120 0.312078 0.042085
v -1.907120 0.351353 -0.051909
v -1.907120 0.312078 -0.089904
v -1.907120 0.312078 -0.067901
v -1.907120 0.272798 -0.051909
v -1.907120 0.257113 -0.067412
v -1.907120 0.256528 -0.012908
v -1.907120 0.234343 -0.012908
v -1.907120 0.257113 0.041078
v -1.907120 0.272798 0.025575
v -1.907120 0.312078 0.063600
v -1.907120 0.312078 0.042085
v -1.701152 0.272798 -0.051909
v -1.701152 0.272798 0.025575
v -1.701152 0.312078 -0.067901
v -1.701152 0.256528 -0.012908
v -1.701152 0.312078 0.042085
v -1.701152 0.351353 0.025575
v -1.701152 0.351353 -0.051909
v -1.701152 0.367628 -0.012908
v -1.300784 0.081963 -0.056914
v -1.296320 0.180843 -0.100402
v -1.299920 0.101413 -0.100402
v -1.296320 0.180843 0.074586
v -1.300784 0.081963 0.031098
v -1.299920 0.101413 0.074586
v -1.280767 0.645953 -0.048400
v -1.280767 0.645953 0.022096
v -1.280767 0.673458 -0.012908
v -1.280767 0.681143 0.005586
v -1.280767 0.699698 0.022096
v -1.280767 0.699698 0.013093
v -1.280767 0.681143 -0.031402
v -1.280767 0.699698 -0.048400
v -1.280767 0.699698 -0.039397
v -1.275201 0.699278 -0.013427
v -1.275201 0.662833 -0.024413
v -1.275201 0.662833 -0.001403
v -1.275201 0.699278 -0.012420
v -0.096225 0.632088 0.023591
v -0.096225 0.632088 -0.049407
v -0.103666 0.650808 0.023591
v -0.103666 0.650808 -0.049407
v -0.096225 0.669528 0.023591
v -0.096225 0.669528 -0.049407
v -1.286912 0.644188 -0.049407
v -1.286912 0.644188 0.023103
v -1.293105 0.628643 -0.049407
v -1.293105 0.628643 0.023103
v -1.286912 0.613103 -0.049407
v -1.286912 0.613103 0.023103
v -0.149794 0.406153 0.037080
v -0.149794 0.421163 -0.062926
v -0.149794 0.406153 -0.062926
v -0.149794 0.421163 0.037080
v -0.087202 0.678888 -0.012908
v -0.087202 0.661648 0.022096
v -0.087202 0.686573 0.005586
v -0.087202 0.705128 0.013093
v -0.087202 0.661648 -0.047912
v -0.087202 0.727118 0.022096
v -0.087202 0.686573 -0.031402
v -0.087202 0.723683 0.005586
v -0.087202 0.705128 -0.039397
v -0.087202 0.739773 0.009095
v -0.087202 0.727118 -0.047912
v -0.087202 0.731368 -0.012908
v -0.087202 0.723683 -0.031402
v -0.087202 0.739773 -0.035399
v 0.107007 0.320803 -0.165404
v 0.107007 0.320803 0.139100
v 0.107007 0.428223 -0.109923
v 0.107007 0.428223 0.083589
v 0.289985 0.264648 -0.150908
v 0.289985 0.192648 0.106080
v 0.289985 0.264648 0.124574
v 0.289985 0.192648 -0.132415
v 1.002206 0.319753 -0.188415
v 0.944847 -0.098742 -0.135924
v 0.944847 -0.098742 0.110078
v 1.002206 0.319753 0.162599
v 1.002206 0.319753 0.162599
v 0.925408 0.519753 0.100587
v 0.925408 0.519753 -0.126922
v 1.069937 -0.094032 -0.135924
v 1.069937 -0.094032 0.110078
v 0.944847 -0.098742 -0.135924
v 0.944847 -0.098742 0.110078
v 0.381519 0.264648 -0.150908
v 0.564496 0.320803 -0.165404
v 0.381519 0.264648 0.124574
v 0.564496 0.320803 0.139100
v -0.558079 0.045438 -0.056914
v -1.300784 0.081963 0.031098
v -1.300784 0.081963 -0.056914
v -1.299920 0.101413 -0.100402
v -0.546752 0.064373 -0.100402
v -0.558079 0.045438 0.031098
v -1.299920 0.101413 0.074586
v -0.546752 0.064373 0.074586
v 0.381519 0.192648 -0.132415
v 0.381519 0.192648 0.106080
v 0.289985 0.192648 -0.132415
v 0.289985 0.192648 0.106080
v -0.068338 0.723683 -0.031402
v -0.087202 0.723683 -0.031402
v -0.068338 0.731368 -0.012908
v -0.087202 0.731368 -0.012908
v -0.068338 0.723683 0.005586
v -0.087202 0.723683 0.005586
v -1.701152 0.351353 0.025575
v -1.907120 0.351353 0.025575
v -1.701152 0.367628 -0.012908
v -1.907120 0.367628 -0.012908
v -1.701152 0.351353 -0.051909
v -1.907120 0.351353 -0.051909
v -1.311968 0.252963 -0.012908
v -1.634673 0.270273 0.028596
v -1.634673 0.252963 -0.012908
v -1.311968 0.270273 0.028596
v -1.311968 0.270273 -0.054900
v -1.634673 0.270273 -0.054900
v -1.907120 0.257113 0.041078
v -1.634673 0.257113 0.041078
v -1.907120 0.234343 -0.012908
v -1.634673 0.234343 -0.012908
v -1.907120 0.257113 -0.067412
v -1.634673 0.257113 -0.067412
v -0.060274 0.632088 0.023591
v -0.060274 0.632088 -0.049407
v -0.078226 0.624338 0.023591
v -0.078226 0.624338 -0.049407
v -0.096225 0.632088 0.023591
v -0.096225 0.632088 -0.049407
v -1.286912 0.613103 -0.049407
v -1.286912 0.613103 0.023103
v -1.271985 0.606663 -0.049407
v -1.271985 0.606663 0.023103
v -1.257055 0.613103 -0.049407
v -1.257055 0.613103 0.023103
v 0.289985 0.264648 -0.150908
v 0.107007 0.320803 0.139100
v 0.107007 0.320803 -0.165404
v 0.289985 0.264648 0.124574
v -1.268671 0.662833 -0.024413
v -1.268671 0.662833 -0.001403
v -1.275201 0.662833 -0.024413
v -1.275201 0.662833 -0.001403
v -0.068338 0.705128 0.013093
v -0.087202 0.686573 0.005586
v -0.087202 0.705128 0.013093
v -0.068338 0.686573 0.005586
v -0.068338 0.723683 0.005586
v -0.087202 0.723683 0.005586
v -0.087202 0.705128 0.013093
v -0.068338 0.705128 0.013093
v -1.261904 0.699698 0.013093
v -1.280767 0.681143 0.005586
v -1.280767 0.699698 0.013093
v -1.261904 0.681143 0.005586
v 1.069937 -0.094032 -0.135924
v 1.002206 0.319753 -0.188415
v 1.127007 0.319753 -0.188415
v 0.944847 -0.098742 -0.135924
v -1.701152 0.351353 0.025575
v -1.907120 0.312078 0.042085
v -1.907120 0.351353 0.025575
v -1.701152 0.312078 0.042085
v -1.701152 0.272798 0.025575
v -1.907120 0.272798 0.025575
v -1.701152 0.312078 0.042085
v -1.907120 0.312078 0.042085
v -1.311968 0.270273 -0.054900
v -1.634673 0.270273 -0.054900
v -1.311968 0.312078 -0.071898
v -1.634673 0.312078 -0.071898
v -1.311968 0.353878 -0.054900
v -1.634673 0.353878 -0.054900
v 1.050206 0.519753 -0.126922
v 1.002206 0.319753 -0.188415
v 0.925408 0.519753 -0.126922
v 1.127007 0.319753 -0.188415
v 0.564496 0.428223 -0.109923
v 0.107007 0.320803 -0.165404
v 0.107007 0.428223 -0.109923
v 0.564496 0.320803 -0.165404
v 0.381519 0.264648 -0.150908
v 0.289985 0.264648 -0.150908
v 0.564496 0.320803 -0.165404
v 0.381519 0.192648 -0.132415
v 0.289985 0.264648 -0.150908
v 0.289985 0.192648 -0.132415
v -0.546752 0.064373 -0.100402
v -1.296320 0.180843 -0.100402
v -0.503217 0.141838 -0.100402
v -1.299920 0.101413 -0.100402
v -0.068338 0.727118 -0.047912
v -0.087202 0.727118 -0.047912
v -0.087202 0.661648 -0.047912
v -0.068338 0.661648 -0.047912
v -1.268671 0.699278 -0.013427
v -1.275201 0.662833 -0.024413
v -1.275201 0.699278 -0.013427
v -1.268671 0.662833 -0.024413
v -0.060274 0.669528 -0.049407
v -0.060274 0.632088 -0.049407
v -0.078226 0.624338 -0.049407
v -0.052833 0.650808 -0.049407
v -0.103666 0.650808 -0.049407
v -0.096225 0.632088 -0.049407
v -0.096225 0.669528 -0.049407
v -0.078226 0.677283 -0.049407
v -1.271985 0.606663 -0.049407
v -1.257055 0.644188 -0.049407
v -1.250914 0.628643 -0.049407
v -1.257055 0.613103 -0.049407
v -1.286912 0.644188 -0.049407
v -1.271985 0.650628 -0.049407
v -1.293105 0.628643 -0.049407
v -1.286912 0.613103 -0.049407
v -1.280767 0.645953 -0.048400
v -1.280767 0.699698 -0.048400
v -1.261904 0.699698 -0.048400
v -1.261904 0.645953 -0.048400
v -1.907120 0.257113 -0.067412
v -1.634673 0.257113 -0.067412
v -1.907120 0.312078 -0.089904
v -1.634673 0.312078 -0.089904
v -1.907120 0.367043 -0.067412
v -1.634673 0.367043 -0.067412
v -0.149794 0.406153 0.037080
v -0.802591 0.406153 0.037080
v -0.435871 0.421163 0.037080
v -0.802591 0.421163 0.037080
v -0.149794 0.421163 0.037080
v 0.935153 -0.044867 -0.134917
v 0.928144 -0.062317 0.106080
v 0.928144 -0.062317 -0.131927
v 0.935153 -0.044867 0.109101
v 0.928144 -0.027417 -0.137908
v 0.935153 -0.044867 0.109101
v 0.935153 -0.044867 -0.134917
v 0.928144 -0.027417 0.112092
v 0.764942 0.464218 -0.137420
v 0.771951 0.480903 0.106080
v 0.764942 0.464218 0.111573
v 0.771951 0.480903 -0.131927
v 0.764942 0.497583 -0.126403
v 0.764942 0.497583 0.100099
v 0.771951 0.480903 -0.131927
v -0.061618 0.668343 0.026094
v -0.061618 0.668343 -0.051909
v -0.055088 0.651933 0.026094
v -0.055088 0.651933 -0.051909
v -0.061618 0.635518 0.026094
v -0.061618 0.635518 -0.051909
v -0.360849 0.175133 -0.124419
v -0.367858 0.158018 0.094087
v -0.367858 0.158018 -0.119903
v -0.360849 0.175133 0.098573
v -0.367858 0.192248 -0.128905
v -0.360849 0.175133 0.098573
v -0.367858 0.192248 0.103089
v -0.360849 0.175133 -0.124419
v -1.258066 0.616138 -0.051909
v -1.258066 0.616138 0.025575
v -1.252642 0.629768 -0.051909
v -1.252642 0.629768 0.025575
v -1.258066 0.643393 -0.051909
v -1.258066 0.643393 0.025575
v 0.747902 0.504493 -0.123900
v 0.764942 0.497583 0.100099
v 0.764942 0.497583 -0.126403
v 0.747902 0.504493 0.098084
v -0.401890 0.192248 -0.128905
v -0.384898 0.199338 0.105073
v -0.384898 0.199338 -0.130919
v -0.401890 0.192248 0.103089
v 0.911104 -0.020192 -0.139403
v 0.928144 -0.027417 0.112092
v 0.928144 -0.027417 -0.137908
v 0.911104 -0.020192 0.113099
v 0.730910 0.497583 -0.126403
v 0.747902 0.504493 0.098084
v 0.747902 0.504493 -0.123900
v 0.730910 0.497583 0.100099
v -0.077361 0.675143 -0.051909
v -0.061618 0.668343 0.026094
v -0.061618 0.668343 -0.051909
v -0.077361 0.675143 0.026094
v -0.093152 0.668343 0.026094
v -0.093152 0.668343 -0.051909
v -0.077361 0.675143 0.026094
v -0.077361 0.675143 -0.051909
v -0.367858 0.192248 -0.128905
v -0.384898 0.199338 0.105073
v -0.367858 0.192248 0.103089
v -0.384898 0.199338 -0.130919
v 0.894112 -0.027417 -0.137908
v 0.911104 -0.020192 0.113099
v 0.911104 -0.020192 -0.139403
v 0.894112 -0.027417 0.112092
v -1.284224 0.643393 -0.051909
v -1.271121 0.649043 0.025575
v -1.271121 0.649043 -0.051909
v -1.284224 0.643393 0.025575
v -1.258066 0.643393 -0.051909
v -1.258066 0.643393 0.025575
v -1.271121 0.649043 -0.051909
v -1.271121 0.649043 0.025575
v 0.894112 -0.062317 0.106080
v 0.894112 -0.027417 0.112092
v 0.887055 -0.044867 0.109101
v 0.911104 -0.020192 0.113099
v 0.911104 -0.069542 0.104585
v 0.928144 -0.062317 0.106080
v 0.928144 -0.027417 0.112092
v 0.935153 -0.044867 0.109101
v 0.730910 0.464218 0.111573
v 0.730910 0.497583 0.100099
v 0.723857 0.480903 0.106080
v 0.747902 0.504493 0.098084
v 0.747902 0.457308 0.114076
v 0.764942 0.464218 0.111573
v 0.764942 0.497583 0.100099
v 0.771951 0.480903 0.106080
v -0.401890 0.158018 0.094087
v -0.401890 0.192248 0.103089
v -0.408943 0.175133 0.098573
v -0.384898 0.150933 0.092073
v -0.384898 0.199338 0.105073
v -0.367858 0.192248 0.103089
v -0.367858 0.158018 0.094087
v -0.360849 0.175133 0.098573
v -0.401890 0.158018 -0.119903
v -0.408943 0.175133 0.098573
v -0.408943 0.175133 -0.124419
v -0.401890 0.158018 0.094087
v -0.408943 0.175133 -0.124419
v -0.401890 0.192248 0.103089
v -0.401890 0.192248 -0.128905
v -0.408943 0.175133 0.098573
v 0.894112 -0.062317 -0.131927
v 0.887055 -0.044867 0.109101
v 0.887055 -0.044867 -0.134917
v 0.894112 -0.062317 0.106080
v -0.093152 0.635518 0.026094
v -0.093152 0.635518 -0.051909
v -0.099631 0.651933 0.026094
v -0.099631 0.651933 -0.051909
v -0.093152 0.668343 0.026094
v -0.093152 0.668343 -0.051909
v 0.730910 0.464218 0.111573
v 0.723857 0.480903 -0.131927
v 0.730910 0.464218 -0.137420
v 0.723857 0.480903 0.106080
v 0.730910 0.497583 0.100099
v 0.730910 0.497583 -0.126403
v 0.723857 0.480903 0.106080
v 0.887055 -0.044867 -0.134917
v 0.894112 -0.027417 0.112092
v 0.894112 -0.027417 -0.137908
v 0.887055 -0.044867 0.109101
v -1.284224 0.643393 -0.051909
v -1.284224 0.643393 0.025575
v -1.289648 0.629768 -0.051909
v -1.289648 0.629768 0.025575
v -1.284224 0.616138 -0.051909
v -1.284224 0.616138 0.025575
v 0.764942 0.464218 -0.137420
v 0.747902 0.457308 0.114076
v 0.764942 0.464218 0.111573
v 0.747902 0.457308 -0.139922
v -0.384898 0.150933 -0.117919
v -0.401890 0.158018 0.094087
v -0.401890 0.158018 -0.119903
v -0.384898 0.150933 0.092073
v 0.928144 -0.062317 -0.131927
v 0.911104 -0.069542 0.104585
v 0.911104 -0.069542 -0.130401
v 0.928144 -0.062317 0.106080
v 0.894112 -0.062317 -0.131927
v 0.911104 -0.069542 -0.130401
v 0.894112 -0.062317 0.106080
v -0.367858 0.158018 -0.119903
v -0.384898 0.150933 0.092073
v -0.384898 0.150933 -0.117919
v -0.367858 0.158018 0.094087
v -0.061618 0.635518 0.026094
v -0.061618 0.635518 -0.051909
v -0.077361 0.628718 0.026094
v -0.077361 0.628718 -0.051909
v -0.093152 0.635518 0.026094
v -0.093152 0.635518 -0.051909
v 0.747902 0.457308 -0.139922
v 0.730910 0.464218 0.111573
v 0.730910 0.464218 -0.137420
v 0.747902 0.457308 0.114076
v -1.284224 0.616138 -0.051909
v -1.284224 0.616138 0.025575
v -1.271121 0.610493 -0.051909
v -1.271121 0.610493 0.025575
v -1.258066 0.616138 -0.051909
v -1.258066 0.616138 0.025575
v 0.928144 -0.062317 -0.131927
v 0.911104 -0.020192 -0.139403
v 0.928144 -0.027417 -0.137908
v 0.935153 -0.044867 -0.134917
v 0.911104 -0.069542 -0.130401
v 0.894112 -0.062317 -0.131927
v 0.894112 -0.027417 -0.137908
v 0.887055 -0.044867 -0.134917
v 0.764942 0.464218 -0.137420
v 0.747902 0.504493 -0.123900
v 0.764942 0.497583 -0.126403
v 0.771951 0.480903 -0.131927
v 0.747902 0.457308 -0.139922
v 0.730910 0.464218 -0.137420
v 0.730910 0.497583 -0.126403
v 0.723857 0.480903 -0.131927
v -0.367858 0.192248 -0.128905
v -0.367858 0.158018 -0.119903
v -0.384898 0.150933 -0.117919
v -0.360849 0.175133 -0.124419
v -0.384898 0.199338 -0.130919
v -0.401890 0.192248 -0.128905
v -0.401890 0.158018 -0.119903
v -0.408943 0.175133 -0.124419
v -0.610689 0.449753 -0.040923
v -0.610689 0.399753 0.027101
v -0.610689 0.399753 -0.052916
v -0.610689 0.449753 0.015077
v -0.620287 0.489753 0.003602
v -0.620287 0.489753 -0.029906
v -0.639488 0.539753 -0.029906
v -0.639488 0.539753 0.003602
v -0.639488 0.539753 -0.029906
v -0.639488 0.539753 0.003602
v -0.672465 0.570328 -0.029906
v -0.672465 0.570328 0.003602
v -0.699297 0.572833 -0.029906
v -0.699297 0.572833 0.003602
v -0.683265 0.449753 -0.040923
v -0.752050 0.449753 -0.040923
v -0.752050 0.449753 0.015077
v -0.793088 0.431203 -0.052916
v -0.793088 0.431203 0.027101
v -0.683265 0.449753 0.015077
v -0.610689 0.399753 0.027101
v -0.683265 0.449753 0.015077
v -0.793088 0.399753 0.027101
v -0.610689 0.449753 0.015077
v -0.752050 0.449753 0.015077
v -0.793088 0.431203 0.027101
v -0.654466 0.489753 0.003602
v -0.620287 0.489753 0.003602
v -0.654466 0.519753 0.003602
v -0.639488 0.539753 0.003602
v -0.677984 0.550658 0.003602
v -0.672465 0.570328 0.003602
v -0.699440 0.563118 0.003602
v -0.699297 0.572833 0.003602
v -0.793088 0.399753 -0.052916
v -0.793088 0.399753 0.027101
v -0.793088 0.431203 -0.052916
v -0.793088 0.431203 0.027101
v -0.699440 0.563118 -0.029906
v -0.699440 0.563118 0.003602
v -0.699297 0.572833 -0.029906
v -0.699297 0.572833 0.003602
v -0.683265 0.449753 -0.040923
v -0.683265 0.449753 0.015077
v -0.654466 0.489753 -0.029906
v -0.654466 0.489753 0.003602
v -0.654466 0.519753 0.003602
v -0.654466 0.519753 -0.029906
v -0.677984 0.550658 0.003602
v -0.677984 0.550658 -0.029906
v -0.677984 0.550658 0.003602
v -0.677984 0.550658 -0.029906
v -0.699440 0.563118 0.003602
v -0.699440 0.563118 -0.029906
v -0.752050 0.449753 -0.040923
v -0.793088 0.399753 -0.052916
v -0.793088 0.431203 -0.052916
v -0.683265 0.449753 -0.040923
v -0.610689 0.399753 -0.052916
v -0.610689 0.449753 -0.040923
v -0.654466 0.489753 -0.029906
v -0.620287 0.489753 -0.029906
v -0.654466 0.519753 -0.029906
v -0.639488 0.539753 -0.029906
v -0.677984 0.550658 -0.029906
v -0.672465 0.570328 -0.029906
v -0.699440 0.563118 -0.029906
v -0.699297 0.572833 -0.029906
vn 0.6937 -0.7203 -0.0000
vn 0.9861 -0.1662 -0.0000
vn 0.9860 -0.1666 -0.0000
vn 0.4328 0.9015 -0.0000
vn 0.9479 0.3185 -0.0000
vn 1.0000 -0.0000 -0.0000
vn 0.6354 0.7722 -0.0001
vn 0.9424 0.3344 -0.0000
vn 0.6354 0.7722 -0.0000
vn 0.9424 0.3345 -0.0000
vn 0.8813 0.4726 -0.0000
vn 0.9737 0.2280 -0.0000
vn 0.9737 0.2278 -0.0000
vn 0.9736 0.2282 -0.0000
vn 0.9553 -0.2956 -0.0000
vn 0.4715 -0.8819 -0.0000
vn -0.5183 0.8552 -0.0000
vn -0.0000 1.0000 -0.0000
vn -0.3831 0.9237 -0.0000
vn -0.3835 0.9235 -0.0000
vn -0.3594 0.9332 -0.0000
vn 0.6355 0.7721 -0.0000
vn 0.2787 0.9604 -0.0000
vn -0.0166 0.9999 -0.0000
vn 0.8813 0.4726 0.0002
vn 0.0164 -0.2684 0.9632
vn -0.0082 -0.2591 0.9658
vn -0.0082 -0.2830 0.9591
vn -0.0164 -0.2830 0.9590
vn -0.0575 -0.2366 0.9699
vn -0.0574 -0.2440 0.9681
vn -0.0409 -0.1808 0.9827
vn -0.0328 -0.1732 0.9843
vn -0.0164 -0.1580 0.9873
vn -0.0083 -0.1580 0.9874
vn 0.0245 -0.1655 0.9859
vn 0.0328 -0.1656 0.9856
vn 0.0409 -0.1884 0.9812
vn -0.0246 -0.1809 0.9832
vn -0.0411 -0.2050 0.9779
vn -0.1558 -0.1496 0.9764
vn -0.1878 -0.1411 0.9720
vn -0.1229 -0.1337 0.9834
vn -0.0986 -0.1341 0.9861
vn -0.0000 -0.1337 0.9910
vn -0.0000 -0.1336 0.9910
vn -0.0000 0.4506 0.8927
vn -0.1718 0.3928 0.9034
vn -0.1960 0.3844 0.9021
vn -0.1637 0.3143 0.9351
vn -0.1226 0.3138 0.9415
vn -0.0000 0.2925 0.9563
vn -0.0000 0.2924 0.9563
vn -0.0000 -0.0000 1.0000
vn -1.0000 -0.0000 -0.0000
vn -0.9944 -0.1061 -0.0000
vn -0.9821 0.1886 -0.0000
vn -0.9340 -0.3572 -0.0000
vn -0.9341 -0.3570 -0.0000
vn -0.9737 -0.2278 -0.0000
vn -0.9736 -0.2281 -0.0000
vn -0.5183 0.8552 0.0002
vn -0.8679 0.4968 -0.0000
vn -0.8678 0.4968 -0.0000
vn -0.9375 -0.3479 -0.0000
vn -0.7624 -0.6471 -0.0000
vn -0.8646 0.5025 -0.0000
vn -0.8645 0.5027 -0.0000
vn -0.8645 0.5026 -0.0000
vn -0.9424 -0.3345 -0.0000
vn -0.4394 -0.8983 -0.0000
vn 0.2460 -0.9693 -0.0000
vn -0.1649 -0.9863 -0.0000
vn 0.1961 -0.9806 -0.0000
vn -0.0000 -1.0000 -0.0000
vn -0.1648 -0.9863 -0.0000
vn -0.6043 -0.7968 -0.0000
vn -0.2787 -0.9604 -0.0000
vn 0.0163 -0.9999 -0.0000
vn 0.6938 -0.7202 -0.0000
vn 0.6938 -0.7202 -0.0002
vn -0.0573 -0.9984 -0.0000
vn 0.2539 -0.9672 -0.0000
vn 0.1229 -0.9924 -0.0000
vn 0.1230 -0.9924 -0.0000
vn -0.7623 -0.6473 -0.0000
vn 0.0164 -0.2684 -0.9632
vn -0.0082 -0.2830 -0.9591
vn 0.0165 -0.2684 -0.9632
vn -0.0082 -0.2591 -0.9658
vn -0.0164 -0.2830 -0.9590
vn -0.0574 -0.2440 -0.9681
vn -0.0575 -0.2366 -0.9699
vn -0.0409 -0.1808 -0.9827
vn -0.0328 -0.1732 -0.9843
vn -0.0164 -0.1580 -0.9873
vn -0.0082 -0.1580 -0.9874
vn 0.0245 -0.1655 -0.9859
vn 0.0328 -0.1656 -0.9856
vn 0.0409 -0.1884 -0.9812
vn -0.0246 -0.1809 -0.9832
vn -0.0410 -0.2051 -0.9779
vn -0.1558 -0.1496 -0.9764
vn -0.1878 -0.1411 -0.9720
vn -0.1229 -0.1337 -0.9834
vn -0.0986 -0.1341 -0.9861
vn -0.0000 -0.1337 -0.9910
vn 0.0002 -0.1335 -0.9910
vn 0.0001 -0.1337 -0.9910
vn -0.0000 -0.1340 -0.9910
vn -0.0000 0.4508 -0.8926
vn -0.0000 0.4500 -0.8930
vn -0.1961 0.3844 -0.9021
vn -0.1718 0.3928 -0.9034
vn -0.1637 0.3143 -0.9351
vn -0.1226 0.3138 -0.9415
vn -0.0000 0.2924 -0.9563
vn -0.0000 0.2925 -0.9563
vn -0.0000 -0.0000 -1.0000
vn 0.9952 0.0984 -0.0000
vn 0.9907 -0.1362 -0.0000
vn 0.9907 -0.1360 -0.0000
vn 0.9951 0.0986 -0.0000
vn 0.9340 0.3572 -0.0000
vn 0.9341 0.3570 -0.0000
vn 0.9951 0.0987 -0.0000
vn 0.8679 -0.4968 -0.0000
vn 0.8678 -0.4968 -0.0000
vn 0.7214 0.6925 -0.0000
vn 0.7214 0.6925 -0.0001
vn 0.7214 -0.6925 -0.0000
vn 1.0000 -0.0001 -0.0000
vn 0.7214 -0.6925 0.0001
vn -0.0000 0.9224 -0.3863
vn -0.0000 0.9224 0.3863
vn -0.0000 0.7071 -0.7071
vn -0.0000 0.7071 0.7071
vn -0.6468 0.5354 0.5432
vn -0.0000 0.7032 0.7110
vn -0.6440 0.7650 -0.0000
vn -0.6467 0.5353 -0.5433
vn -0.0000 0.7032 -0.7110
vn 0.0001 0.7071 -0.7071
vn -0.0000 1.0000 -0.0001
vn -0.0000 0.3863 0.9224
vn -0.0000 0.3863 -0.9224
vn -0.0002 0.9224 -0.3863
vn 0.7214 0.6926 -0.0000
vn -0.7213 0.6926 -0.0000
vn -0.7214 0.6925 -0.0000
vn 0.7213 0.6926 -0.0000
vn -0.0000 -0.7071 0.7071
vn -0.0000 0.1026 0.9947
vn -0.0000 -0.1260 0.9920
vn -0.0000 0.0706 0.9975
vn -0.0000 -0.7031 0.7111
vn -0.6440 -0.0000 0.7650
vn -0.6467 -0.5355 0.5432
vn -0.6467 0.5355 0.5432
vn -0.0000 0.7031 0.7111
vn 0.0001 -0.0001 1.0000
vn 0.0001 0.7071 0.7071
vn -0.0000 0.0001 1.0000
vn -0.0000 0.0707 0.9975
vn -0.0000 0.2996 0.9541
vn -0.0000 0.1027 0.9947
vn -0.0000 0.4566 0.8897
vn -0.0000 0.3607 0.9327
vn -0.0000 -0.2517 0.9678
vn -0.0000 -0.2518 0.9678
vn -0.0000 -0.0003 1.0000
vn -0.0000 0.2830 0.9591
vn -0.0001 -0.7031 0.7111
vn 0.0001 0.7031 0.7111
vn -0.6466 0.5354 0.5434
vn -0.6467 0.5355 -0.5432
vn -0.6439 -0.0001 0.7651
vn -0.6439 0.7651 -0.0000
vn -0.6439 -0.0000 -0.7651
vn -0.6467 -0.5355 -0.5432
vn -0.6439 -0.7651 -0.0000
vn -0.9990 0.0451 0.0001
vn -0.9990 0.0453 0.0004
vn -0.9990 0.0451 -0.0001
vn -0.9990 0.0453 0.0001
vn -0.7214 -0.6925 -0.0000
vn -1.0000 -0.0001 -0.0000
vn -0.9951 -0.0985 -0.0000
vn -0.9907 0.1358 -0.0000
vn -0.9951 -0.0986 -0.0000
vn -0.9341 -0.3571 -0.0000
vn 0.0409 -0.9992 -0.0000
vn 0.0410 -0.9992 -0.0000
vn 0.2934 -0.9560 -0.0000
vn -0.0491 -0.9743 -0.2200
vn -0.0492 -0.9759 0.2125
vn -0.0492 -0.9759 -0.2125
vn -0.0491 -0.9114 -0.4086
vn -0.0491 -0.9743 0.2200
vn -0.0491 -0.9114 0.4086
vn -0.0000 -0.7071 -0.7071
vn -0.0000 -0.7032 -0.7110
vn -0.6440 -0.7650 -0.0000
vn -0.6468 -0.5354 -0.5432
vn -0.6467 -0.5354 0.5432
vn -0.0000 -0.7032 0.7110
vn -0.0000 -1.0000 -0.0001
vn -0.0000 -1.0000 0.0002
vn 0.0005 -1.0000 -0.0000
vn 0.7213 -0.6926 -0.0000
vn 0.0002 -1.0000 -0.0000
vn -0.7213 -0.6926 -0.0000
vn -0.2934 -0.9560 -0.0000
vn -0.2938 -0.9559 -0.0000
vn -0.2939 -0.9558 -0.0000
vn -0.0000 0.0001 -1.0000
vn -0.0000 -0.1260 -0.9920
vn -0.0000 0.1026 -0.9947
vn -0.0000 0.0705 -0.9975
vn -0.6467 -0.5355 -0.5431
vn -0.0000 -0.0001 -1.0000
vn -0.0000 -0.7031 -0.7111
vn -0.6441 -0.0000 -0.7649
vn -0.0000 0.7031 -0.7111
vn -0.6440 -0.0000 -0.7650
vn -0.6468 0.5354 -0.5432
vn -0.0000 0.2996 -0.9541
vn -0.0000 0.1029 -0.9947
vn -0.0000 0.0709 -0.9975
vn -0.0000 0.4566 -0.8897
vn -0.0000 0.3606 -0.9327
vn -0.0000 -0.2518 -0.9678
vn -0.0000 -0.2517 -0.9678
vn -0.0000 0.2830 -0.9591
vn 0.9935 0.1135 -0.0000
vn 0.9935 0.1136 -0.0000
vn 0.9553 0.2956 -0.0000
vn 0.8070 0.5906 -0.0000
vn 0.2463 0.9692 -0.0000
vn 0.8069 0.5907 -0.0000
vn 0.8069 0.5907 0.0001
vn 0.0907 0.9959 -0.0000
vn -0.1723 0.9850 -0.0000
vn -0.1392 0.9903 -0.0000
vn -0.4164 0.9092 -0.0000
vn 0.0246 0.2202 0.9751
vn 0.0165 0.2369 0.9714
vn 0.0082 0.2444 0.9696
vn 0.0246 0.2200 0.9752
vn -0.0000 0.1414 0.9899
vn -0.0000 0.1414 0.9900
vn -0.9999 0.0152 -0.0000
vn -0.1722 0.9851 -0.0000
vn -0.9400 0.3412 -0.0000
vn -0.6306 -0.7761 -0.0000
vn -0.5029 -0.8643 -0.0000
vn -0.5030 -0.8643 -0.0000
vn 0.0246 0.2202 -0.9751
vn 0.0246 0.2202 -0.9752
vn 0.0165 0.2369 -0.9714
vn 0.0245 0.2202 -0.9751
vn 0.0082 0.2444 -0.9696
vn -0.0000 0.1414 -0.9899
vn -0.0000 0.1414 -0.9900
vn 0.9990 0.0453 -0.0000
vn 0.7366 -0.6763 -0.0000
vn 0.6938 0.7202 -0.0000
vn 0.9990 0.0454 -0.0000
vn 0.6609 -0.7505 -0.0000
vn 0.9966 -0.0829 -0.0000
vn 0.7441 0.6681 -0.0000
vn 1.0000 0.0001 -0.0000
vn 0.9982 0.0603 -0.0000
vn 0.7404 -0.6721 -0.0000
vn 0.7405 -0.6720 -0.0000
vn 0.9982 0.0604 -0.0000
vn 0.6775 0.7355 -0.0000
vn 0.9982 0.0606 -0.0000
vn 0.7440 0.6682 -0.0000
vn -0.6774 0.7356 -0.0000
vn 0.6937 0.7203 -0.0000
vn 0.0001 1.0000 -0.0000
vn -0.7440 0.6682 -0.0000
vn 0.6774 0.7356 -0.0000
vn -0.6937 0.7203 -0.0000
vn -0.0001 1.0000 -0.0000
vn -0.0000 -0.1733 0.9849
vn -0.0000 -0.1734 0.9849
vn -0.0000 -0.1732 0.9849
vn -0.0000 0.3233 0.9463
vn -0.0000 0.3232 0.9463
vn -0.7405 -0.6720 -0.0000
vn -0.9982 0.0603 -0.0000
vn -0.9982 0.0604 -0.0000
vn -0.9982 0.0606 -0.0000
vn -0.6775 0.7355 -0.0000
vn -0.7366 -0.6763 -0.0000
vn -0.9990 0.0453 -0.0000
vn -0.7367 -0.6763 -0.0000
vn -1.0000 0.0001 -0.0000
vn -0.6609 -0.7505 -0.0000
vn -0.9966 -0.0829 -0.0000
vn -0.7441 0.6680 -0.0000
vn -0.9990 0.0456 -0.0000
vn -0.6938 0.7202 -0.0000
vn -0.9990 0.0455 -0.0000
vn 0.0001 -1.0000 -0.0000
vn -0.7404 -0.6722 -0.0000
vn 0.7365 -0.6764 -0.0000
vn -0.7366 -0.6764 -0.0000
vn 0.7404 -0.6722 -0.0000
vn -0.0002 -1.0000 -0.0000
vn -0.6608 -0.7506 -0.0000
vn -0.6608 -0.7505 -0.0000
vn -0.0000 -0.1733 -0.9849
vn -0.0000 -0.1732 -0.9849
vn -0.0000 0.3233 -0.9463
vt 44.027401 0.936065
vt 43.959000 1.036580
vt 43.972599 0.936065
vt 44.041000 1.036580
vt 43.984001 1.141230
vt 43.984001 1.116130
vt 43.990398 1.141230
vt 43.990398 1.116130
vt 43.984001 1.053730
vt 43.990398 1.053730
vt 44.009602 1.116130
vt 44.015999 1.141230
vt 44.009602 1.141230
vt 44.015999 1.116130
vt 44.015999 1.053730
vt 44.009602 1.053730
vt 43.973801 1.084370
vt 44.026199 1.084370
vt 43.990398 1.109310
vt 44.009602 1.109310
vt 44.021900 0.902728
vt 44.021900 1.018040
vt 43.978100 1.018040
vt 43.978100 0.902728
vt 43.978100 0.894792
vt 44.021900 0.894792
vt 43.978100 0.878919
vt 44.021900 0.878919
vt 43.984001 1.094850
vt 44.015999 1.114460
vt 43.984001 1.114460
vt 44.015999 1.094850
vt 43.984001 1.060590
vt 44.015999 1.060590
vt 44.301899 1.016000
vt 43.971901 1.016000
vt 44.301899 1.009600
vt 43.971901 1.009600
vt 44.301899 0.990400
vt 43.971901 0.984000
vt 44.301899 0.984000
vt 43.971901 0.990400
vt 43.956200 0.977600
vt 43.993801 0.977600
vt 43.956200 1.022400
vt 43.938801 1.022400
vt 43.938801 0.977600
vt 43.993801 1.022400
vt 43.926300 1.022400
vt 43.926300 0.977600
vt 43.905300 1.022400
vt 43.905300 0.977600
vt 43.891300 1.022400
vt 43.891300 0.977600
vt 43.849602 1.022400
vt 43.849602 0.977600
vt 43.803398 1.022400
vt 43.803398 0.977600
vt 43.778099 1.026210
vt 43.778099 0.973792
vt 43.731899 1.026210
vt 43.731899 0.973792
vt 43.693699 1.026210
vt 43.693699 0.973792
vt 43.977200 0.990400
vt 44.311798 0.990400
vt 44.311798 1.009600
vt 43.977200 1.009600
vt 43.961300 0.990400
vt 43.961300 1.009600
vt 44.003700 0.987500
vt 44.078300 0.977600
vt 44.078300 0.987500
vt 44.173801 0.987500
vt 44.318699 0.977600
vt 44.003700 1.012500
vt 44.318699 1.022400
vt 44.173801 1.012500
vt 44.078300 1.022400
vt 44.078300 1.012500
vt 43.919998 1.036580
vt 43.691200 0.998849
vt 43.925301 0.986389
vt 43.676300 1.036580
vt 44.006199 1.006580
vt 44.006199 1.036580
vt 44.043800 1.006580
vt 44.043800 1.036580
vt 44.061199 1.036580
vt 44.061199 0.996577
vt 44.073700 1.036580
vt 44.073700 0.964077
vt 44.087200 0.964077
vt 44.094700 1.036580
vt 44.108700 1.036580
vt 44.150398 0.988842
vt 44.150398 1.036580
vt 44.196602 1.036580
vt 44.196602 0.950639
vt 44.221901 1.036580
vt 44.221901 0.934373
vt 44.252998 0.934548
vt 44.268101 1.036580
vt 44.306198 0.936065
vt 44.323700 1.036580
vt 43.921700 1.061580
vt 43.681301 1.061580
vt 44.006199 1.061580
vt 44.043800 1.061580
vt 44.061199 1.061580
vt 44.073700 1.061580
vt 44.094700 1.061580
vt 44.108700 1.061580
vt 44.150398 1.061580
vt 44.196602 1.061580
vt 44.221901 1.084370
vt 44.268101 1.084370
vt 44.306301 1.084370
vt 44.000999 1.018040
vt 43.954399 0.884519
vt 44.029099 0.902728
vt 43.926300 0.999826
vt 44.031101 0.894792
vt 43.948399 0.874648
vt 43.952301 0.858775
vt 44.034901 0.878919
vt 43.683300 1.106200
vt 43.711800 1.094850
vt 43.698101 1.131640
vt 43.683300 1.060590
vt 43.711800 1.060590
vt 43.725601 1.114460
vt 44.028099 1.141230
vt 44.003300 1.112480
vt 44.048199 1.116130
vt 44.016998 1.096230
vt 44.048199 1.053730
vt 44.016998 1.053730
vt 44.022800 1.119210
vt 43.688202 1.114050
vt 44.038700 1.109310
vt 44.038700 1.053730
vt 44.015999 1.106200
vt 43.984001 1.106200
vt 43.965000 1.036580
vt 44.035000 1.036580
vt 43.977600 1.061580
vt 44.022400 1.061580
vt 43.976601 0.998849
vt 44.023399 0.998849
vt 43.978100 0.858775
vt 44.021900 0.874648
vt 43.978100 0.874648
vt 44.021900 0.858775
vt 43.978100 0.999826
vt 43.978100 0.884519
vt 44.021900 0.884519
vt 44.021900 0.999826
vt 44.009602 1.131640
vt 44.009602 1.114050
vt 44.015999 1.131640
vt 43.990398 1.114050
vt 43.984001 1.131640
vt 43.990398 1.131640
vt 43.976601 0.964077
vt 44.028099 0.996577
vt 43.971901 0.996577
vt 44.023399 0.964077
vt 43.984001 1.096230
vt 44.015999 1.096230
vt 44.015999 1.112480
vt 43.984001 1.112480
vt 43.952301 0.978112
vt 44.034901 0.978112
vt 44.034901 1.021890
vt 43.952301 1.021890
vt 44.150398 0.976596
vt 44.087200 1.023400
vt 44.087200 0.976596
vt 44.073700 1.023400
vt 44.073700 0.976596
vt 44.150398 1.023400
vt 44.196602 0.976596
vt 44.196602 1.023400
vt 44.221901 0.972617
vt 44.221901 1.027380
vt 44.252998 0.972617
vt 44.252998 1.027380
vt 44.306198 0.972617
vt 44.306198 1.027380
vt 43.691200 0.976596
vt 43.925301 0.976596
vt 43.925301 1.023400
vt 43.691200 1.023400
vt 44.006199 0.976596
vt 44.006199 1.023400
vt 44.043800 0.971915
vt 44.043800 1.028080
vt 44.061199 0.971915
vt 44.061199 1.028080
vt 44.048199 0.984000
vt 44.038700 0.990400
vt 44.016998 0.984000
vt 44.048199 0.990400
vt 44.016998 1.016000
vt 44.038700 1.009600
vt 44.048199 1.016000
vt 44.048199 1.009600
vt 43.683300 0.984000
vt 43.711800 0.984000
vt 43.683300 1.016000
vt 43.711800 1.016000
vt 44.003300 1.016000
vt 43.725601 1.016000
vt 44.003300 0.984000
vt 43.725601 0.984000
vt 44.080002 1.036580
vt 43.993801 1.006580
vt 44.074699 0.986389
vt 44.308800 0.998849
vt 43.993801 1.036580
vt 43.956200 1.036580
vt 43.956200 1.006580
vt 43.938801 1.036580
vt 43.938801 0.996577
vt 43.926300 1.036580
vt 43.926300 0.964077
vt 43.912800 0.964077
vt 43.905300 1.036580
vt 43.891300 1.036580
vt 43.849602 0.988842
vt 43.849602 1.036580
vt 43.803398 1.036580
vt 43.803398 0.950639
vt 43.778099 1.036580
vt 43.778099 0.934373
vt 43.747002 0.934548
vt 43.731899 1.036580
vt 43.693802 0.936065
vt 44.078300 1.061580
vt 44.318699 1.061580
vt 43.993801 1.061580
vt 43.956200 1.061580
vt 43.938801 1.061580
vt 43.926300 1.061580
vt 43.905300 1.061580
vt 43.891300 1.061580
vt 43.849602 1.061580
vt 43.803398 1.061580
vt 43.778099 1.084370
vt 43.731899 1.084370
vt 43.693699 1.084370
vt 43.999001 1.018040
vt 44.045601 0.884519
vt 44.073700 0.999826
vt 43.970901 0.902728
vt 43.968899 0.894792
vt 44.051601 0.874648
vt 44.047699 0.858775
vt 43.965099 0.878919
vt 43.983002 1.096230
vt 43.951801 1.116130
vt 43.951801 1.053730
vt 43.983002 1.053730
vt 43.996700 1.112480
vt 43.971901 1.141230
vt 44.274399 1.114460
vt 44.301899 1.131640
vt 44.288200 1.094850
vt 44.316700 1.106200
vt 44.316700 1.060590
vt 44.288200 1.060590
vt 43.977200 1.119210
vt 44.311798 1.114050
vt 43.961300 1.109310
vt 43.961300 1.053730
vt 16.043900 -41.000198
vt 15.956100 -41.000198
vt 16.030701 -41.103600
vt 15.969300 -41.103600
vt 16.028500 -40.950199
vt 15.971500 -40.950199
vt 15.975800 -40.973099
vt 16.038000 -40.999901
vt 16.024200 -40.973099
vt 15.962000 -40.999901
vt 16.029800 -41.032001
vt 15.965600 -41.014000
vt 15.970200 -41.032001
vt 16.034401 -41.014000
vt 16.005600 -40.895199
vt 15.994400 -40.895199
vt 16.000000 -40.897301
vt 15.995400 -40.899200
vt 16.004601 -40.899200
vt 15.991300 -40.898300
vt 16.008699 -40.898300
vt 15.993400 -40.903801
vt 16.006599 -40.903801
vt 15.991300 -40.914700
vt 16.008699 -40.914700
vt 15.995400 -40.908501
vt 16.004601 -40.908501
vt 16.000000 -40.910400
vt 16.021900 -41.044701
vt 16.011000 -41.068802
vt 16.021900 -41.063999
vt 15.978100 -41.044701
vt 15.989000 -41.068802
vt 15.978100 -41.063999
vt 15.990900 -40.917400
vt 16.009100 -40.912701
vt 15.990900 -40.912701
vt 16.009100 -40.917400
vt 15.990900 -40.922100
vt 16.009100 -40.922100
vt 16.009100 -40.923000
vt 15.990900 -40.926899
vt 16.009100 -40.926899
vt 15.990900 -40.923000
vt 16.009100 -40.919102
vt 15.990900 -40.919102
vt 16.012501 -40.974800
vt 15.987500 -40.978600
vt 16.012501 -40.978600
vt 15.987500 -40.974800
vt 15.991200 -40.905201
vt 15.995400 -40.909801
vt 15.993400 -40.905201
vt 15.991200 -40.918598
vt 16.000000 -40.911800
vt 16.008801 -40.918598
vt 16.004601 -40.909801
vt 16.008801 -40.905201
vt 16.006599 -40.905201
vt 15.999900 -40.905300
vt 16.002899 -40.914398
vt 16.000099 -40.905300
vt 15.997100 -40.914398
vt 16.013599 -41.015900
vt 16.000000 -41.016899
vt 16.000000 -41.021500
vt 15.986400 -41.015900
vt 16.010500 -41.012600
vt 15.989500 -41.012600
vt 15.980800 -41.002102
vt 15.985200 -41.002102
vt 16.019199 -41.002102
vt 16.014799 -41.002102
vt 16.010500 -40.991699
vt 16.013599 -40.988400
vt 16.000000 -40.987301
vt 16.000000 -40.982700
vt 15.986400 -40.988400
vt 15.989500 -40.991699
vt 15.921100 -41.005600
vt 15.921100 -40.994400
vt 15.916200 -41.005600
vt 15.916200 -40.994400
vt 15.921100 -41.000000
vt 15.921100 -40.995399
vt 15.916200 -40.995399
vt 15.916200 -41.000000
vt 15.921100 -41.004601
vt 15.916200 -41.004601
vt 16.232000 -41.008801
vt 16.227100 -41.006599
vt 16.227100 -41.008801
vt 16.232000 -41.006599
vt 16.232000 -40.991199
vt 16.227100 -40.991199
vt 16.232000 -40.993401
vt 16.227100 -40.993401
vt 16.228800 -41.000099
vt 16.230499 -41.000099
vt 16.230499 -40.999901
vt 16.228800 -40.999901
vt 16.232000 -41.000000
vt 16.232000 -40.995399
vt 16.227100 -40.995399
vt 16.227100 -41.000000
vt 16.232000 -41.004601
vt 16.227100 -41.004601
vt 16.341400 -41.009701
vt 16.395100 -41.009701
vt 16.341400 -41.000000
vt 16.395100 -41.000000
vt 16.341400 -40.990299
vt 16.395100 -40.990299
vt 16.240101 -41.010399
vt 16.324100 -41.010399
vt 16.240101 -41.000000
vt 16.324100 -41.000000
vt 16.240101 -40.989601
vt 16.324100 -40.989601
vt 15.921100 -40.991299
vt 15.916200 -40.991299
vt 15.916200 -41.008701
vt 15.921100 -41.008701
vt 15.657400 -41.028500
vt 15.657400 -40.971500
vt 15.624900 -41.028500
vt 15.624900 -40.971500
vt 16.324100 -41.013599
vt 16.395100 -41.013599
vt 16.395100 -40.986401
vt 16.324100 -40.986401
vt 15.918800 -41.009102
vt 15.914100 -40.990898
vt 15.914100 -41.009102
vt 15.918800 -40.990898
vt 15.923500 -41.009102
vt 15.923500 -40.990898
vt 16.233601 -41.009102
vt 16.229700 -40.990898
vt 16.229700 -41.009102
vt 16.233601 -40.990898
vt 16.225800 -40.990898
vt 16.225800 -41.009102
vt 15.751400 -41.024200
vt 15.870600 -41.024200
vt 15.870600 -40.975800
vt 15.751400 -40.975800
vt 16.107401 -41.012501
vt 15.937400 -40.987499
vt 15.937400 -41.012501
vt 16.107401 -40.987499
vt 16.078899 -40.908501
vt 16.083799 -40.908501
vt 16.083799 -40.903801
vt 16.078899 -40.903801
vt 16.083799 -40.899200
vt 16.078899 -40.899200
vt 15.768000 -40.909801
vt 15.772900 -40.909801
vt 15.772900 -40.905201
vt 15.768000 -40.905201
vt 16.362600 -41.000198
vt 16.347601 -41.104801
vt 16.380199 -41.103600
vt 16.395100 -41.000198
vt 15.604900 -40.992298
vt 15.658600 -41.002102
vt 15.658600 -40.992298
vt 15.604900 -41.002102
vt 15.658600 -41.011902
vt 15.604900 -41.011902
vt 15.759900 -41.012600
vt 15.675900 -41.002102
vt 15.675900 -41.012600
vt 15.759900 -41.002102
vt 15.675900 -40.991699
vt 15.759900 -40.991699
vt 16.375099 -40.950199
vt 16.342600 -40.950199
vt 16.248600 -40.973099
vt 16.129400 -40.973099
vt 16.248600 -40.999901
vt 16.129400 -40.999901
vt 16.200899 -41.014000
vt 16.177099 -41.014000
vt 16.177099 -41.032001
vt 16.200899 -41.032001
vt 15.959200 -41.063999
vt 15.764000 -41.034901
vt 15.763100 -41.054798
vt 15.970500 -41.044701
vt 16.078899 -40.898300
vt 16.078899 -40.914700
vt 16.083799 -40.914700
vt 16.083799 -40.898300
vt 15.769500 -40.905300
vt 15.769500 -40.914398
vt 15.771200 -40.914398
vt 15.771200 -40.905300
vt 16.074600 -40.917400
vt 16.085899 -40.912701
vt 16.076500 -40.912701
vt 16.081200 -40.910801
vt 16.081200 -40.924000
vt 16.076500 -40.922100
vt 16.085899 -40.922100
vt 16.087799 -40.917400
vt 15.764800 -40.923000
vt 15.770300 -40.928501
vt 15.766400 -40.919102
vt 15.766400 -40.926899
vt 15.774200 -40.919102
vt 15.770300 -40.917500
vt 15.775800 -40.923000
vt 15.774200 -40.926899
vt 15.772900 -40.918598
vt 15.768000 -40.918598
vt 15.604900 -41.015900
vt 15.675900 -41.015900
vt 15.675900 -40.988400
vt 15.604900 -40.988400
vt 15.892600 -40.978600
vt 16.062599 -40.978600
vt 15.988100 -40.974800
vt 16.062599 -40.974800
vt 15.892600 -40.974800
vt 16.000000 -40.988201
vt 16.009701 -40.992298
vt 16.013700 -41.002102
vt 15.990300 -40.992298
vt 15.986300 -41.002102
vt 15.990300 -41.011902
vt 16.000000 -41.015999
vt 16.009701 -41.011902
vt 15.989000 -41.059601
vt 15.978100 -41.034901
vt 15.978100 -41.054798
vt 16.021900 -41.034901
vt 16.011000 -41.059601
vt 16.021900 -41.054798
vt 15.969300 -41.104801
vt 16.030701 -41.104801
vt 16.380199 -41.030701
vt 16.380199 -40.969299
vt 16.347601 -41.030701
vt 16.347601 -40.969299
vt 16.200899 -41.034401
vt 16.248600 -41.037998
vt 16.200899 -40.965599
vt 16.248600 -40.962002
vt 15.956200 -41.011002
vt 15.762800 -40.988998
vt 15.762800 -41.011002
vt 15.763100 -41.021900
vt 15.959200 -41.021900
vt 15.956200 -40.988998
vt 15.763100 -40.978100
vt 15.959200 -40.978100
vt 16.200899 -41.029800
vt 16.200899 -40.970200
vt 16.177099 -41.029800
vt 16.177099 -40.970200
vt 16.078899 -41.004601
vt 16.083799 -41.004601
vt 16.083799 -41.000000
vt 16.078899 -41.000000
vt 16.083799 -40.995399
vt 16.078899 -40.995399
vt 15.604900 -40.990299
vt 15.658600 -41.000000
vt 15.658600 -40.990299
vt 15.604900 -41.000000
vt 15.658600 -41.009701
vt 15.604900 -41.009701
vt 15.759900 -41.000000
vt 15.675900 -40.989601
vt 15.675900 -41.000000
vt 15.759900 -40.989601
vt 15.759900 -41.010399
vt 15.675900 -41.010399
vt 15.675900 -40.986401
vt 15.604900 -40.986401
vt 15.604900 -41.013599
vt 15.675900 -41.013599
vt 16.081200 -40.990898
vt 16.085899 -41.009102
vt 16.085899 -40.990898
vt 16.081200 -41.009102
vt 16.076500 -40.990898
vt 16.076500 -41.009102
vt 15.770300 -41.009102
vt 15.766400 -40.990898
vt 15.766400 -41.009102
vt 15.770300 -40.990898
vt 15.774200 -41.009102
vt 15.774200 -40.990898
vt 16.177099 -41.034401
vt 16.129400 -40.962002
vt 16.129400 -41.037998
vt 16.177099 -40.965599
vt 15.771200 -41.002899
vt 15.771200 -40.997101
vt 15.769500 -41.002899
vt 15.769500 -40.997101
vt 15.916200 -40.903801
vt 15.921100 -40.908501
vt 15.921100 -40.903801
vt 15.916200 -40.908501
vt 15.916200 -40.899200
vt 15.921100 -40.899200
vt 16.227100 -40.905201
vt 16.232000 -40.909801
vt 16.232000 -40.905201
vt 16.227100 -40.909801
vt 15.619800 -41.103600
vt 15.637400 -41.000198
vt 15.604900 -41.000198
vt 15.652400 -41.104801
vt 16.341400 -40.992298
vt 16.395100 -41.002102
vt 16.395100 -40.992298
vt 16.341400 -41.002102
vt 16.395100 -41.011902
vt 16.341400 -41.011902
vt 16.324100 -41.012600
vt 16.240101 -41.002102
vt 16.240101 -41.012600
vt 16.324100 -41.002102
vt 16.240101 -40.991699
vt 16.324100 -40.991699
vt 15.624900 -40.950199
vt 15.657400 -40.950199
vt 15.751400 -40.973099
vt 15.870600 -40.999901
vt 15.870600 -40.973099
vt 15.751400 -40.999901
vt 15.799100 -41.014000
vt 15.822900 -41.014000
vt 15.799100 -41.032001
vt 15.822900 -41.032001
vt 16.040800 -41.063999
vt 16.236000 -41.034901
vt 16.029499 -41.044701
vt 16.236900 -41.054798
vt 15.916200 -40.898300
vt 15.921100 -40.914700
vt 15.921100 -40.898300
vt 15.916200 -40.914700
vt 16.228800 -40.905300
vt 16.230499 -40.914398
vt 16.230499 -40.905300
vt 16.228800 -40.914398
vt 15.914100 -40.912701
vt 15.914100 -40.922100
vt 15.918800 -40.924000
vt 15.912200 -40.917400
vt 15.925400 -40.917400
vt 15.923500 -40.922100
vt 15.923500 -40.912701
vt 15.918800 -40.910801
vt 16.229700 -40.928501
vt 16.225800 -40.919102
vt 16.224199 -40.923000
vt 16.225800 -40.926899
vt 16.233601 -40.919102
vt 16.229700 -40.917500
vt 16.235201 -40.923000
vt 16.233601 -40.926899
vt 16.232000 -40.918598
vt 16.227100 -40.918598
vt 16.324100 -41.015900
vt 16.395100 -41.015900
vt 16.395100 -40.988400
vt 16.324100 -40.988400
vt 15.937400 -40.978600
vt 16.107401 -40.978600
vt 16.011900 -40.974800
vt 16.107401 -40.974800
vt 15.937400 -40.974800
vt 34.007000 -15.009100
vt 33.990002 -15.021600
vt 34.009998 -15.021600
vt 33.993000 -15.009100
vt 33.995800 -14.999100
vt 34.004200 -14.999100
vt 34.004200 -14.986600
vt 33.995800 -14.986600
vt 33.992298 -15.004200
vt 33.983700 -14.995800
vt 33.983700 -15.004200
vt 33.992298 -14.995800
vt 33.999298 -15.004200
vt 33.999298 -14.995800
vt 33.995098 -15.007000
vt 34.013100 -15.007000
vt 34.013100 -14.993000
vt 34.023800 -15.010000
vt 34.023800 -14.990000
vt 33.995098 -14.993000
vt 34.023800 -15.021600
vt 34.004902 -15.009100
vt 33.976200 -15.021600
vt 34.023800 -15.009100
vt 33.986900 -15.009100
vt 33.976200 -15.013800
vt 34.012402 -14.999100
vt 34.021301 -14.999100
vt 34.012402 -14.991600
vt 34.016300 -14.986600
vt 34.006199 -14.983900
vt 34.007702 -14.979000
vt 34.000599 -14.980800
vt 34.000702 -14.978400
vt 33.990002 -15.013800
vt 34.009998 -15.013800
vt 33.995800 -14.980800
vt 34.004200 -14.980800
vt 33.995800 -14.978400
vt 34.004200 -14.978400
vt 34.004200 -14.991600
vt 33.995800 -14.991600
vt 34.004200 -14.983900
vt 33.995800 -14.983900
vt 34.006199 -15.004200
vt 34.006199 -14.995800
vt 34.000599 -14.995800
vt 34.000599 -15.004200
vt 34.013100 -15.009100
vt 34.023800 -15.013800
vt 33.995098 -15.009100
vt 33.976200 -15.009100
vt 33.987598 -14.999100
vt 33.978699 -14.999100
vt 33.987598 -14.991600
vt 33.983700 -14.986600
vt 33.993801 -14.983900
vt 33.992298 -14.979000
vt 33.999401 -14.980800
vt 33.999298 -14.978400
vt 28.030500 -57.086899
vt 27.970301 -57.091301
vt 28.029699 -57.091301
vt 27.969500 -57.086899
vt 28.031300 -57.082600
vt 27.968700 -57.082600
vt 28.031200 -56.959599
vt 27.970301 -56.955502
vt 27.968800 -56.959599
vt 28.029699 -56.955502
vt 28.028299 -56.951302
vt 27.971701 -56.951302
vt 27.990299 -56.912701
vt 28.009701 -56.908600
vt 27.990299 -56.908600
vt 28.009701 -56.912701
vt 27.990299 -56.916801
vt 28.009701 -56.916801
vt 28.027901 -57.031898
vt 27.973301 -57.036201
vt 28.026699 -57.036201
vt 27.972099 -57.031898
vt 28.028999 -57.027599
vt 27.971001 -57.027599
vt 28.009701 -56.918301
vt 27.990299 -56.921700
vt 28.009701 -56.921700
vt 27.990299 -56.918301
vt 28.009701 -56.914902
vt 27.990299 -56.914902
vt 27.759100 -57.027699
vt 27.754601 -56.971699
vt 27.754601 -57.028301
vt 27.759100 -56.972301
vt 28.058500 -57.028999
vt 28.054100 -56.970501
vt 28.054100 -57.029499
vt 28.058500 -56.971001
vt 27.716600 -57.031601
vt 27.712099 -56.968700
vt 27.712099 -57.031300
vt 27.716600 -56.968399
vt 27.763500 -57.028301
vt 27.763500 -56.971699
vt 27.974001 -57.009701
vt 27.969900 -56.990299
vt 27.969900 -57.009701
vt 27.974001 -56.990299
vt 27.978100 -57.009701
vt 27.978100 -56.990299
vt 28.049601 -57.028999
vt 28.049601 -56.971001
vt 27.721001 -57.031300
vt 27.721001 -56.968700
vt 28.288300 -57.009701
vt 28.284901 -56.990299
vt 28.284901 -57.009701
vt 28.288300 -56.990299
vt 28.281500 -56.990299
vt 28.281500 -57.009701
vt 28.278999 -57.091301
vt 28.278999 -57.082600
vt 28.277201 -57.086899
vt 28.283400 -57.080700
vt 28.283400 -57.093102
vt 28.287901 -57.091301
vt 28.287901 -57.082600
vt 28.289700 -57.086899
vt 28.236500 -56.959599
vt 28.236500 -56.951302
vt 28.234699 -56.955502
vt 28.240900 -56.949600
vt 28.240900 -56.961399
vt 28.245399 -56.959599
vt 28.245399 -56.951302
vt 28.247200 -56.955502
vt 27.941500 -57.036201
vt 27.941500 -57.027599
vt 27.939699 -57.031898
vt 27.945900 -57.037998
vt 27.945900 -57.025902
vt 27.950399 -57.027599
vt 27.950399 -57.036201
vt 27.952200 -57.031898
vt 28.240900 -56.968300
vt 28.245399 -57.031200
vt 28.245399 -56.968800
vt 28.240900 -57.031700
vt 27.945900 -57.026299
vt 27.941500 -56.973301
vt 27.941500 -57.026699
vt 27.945900 -56.973701
vt 28.287901 -57.029701
vt 28.283400 -56.970600
vt 28.283400 -57.029400
vt 28.287901 -56.970299
vt 28.278999 -57.029701
vt 28.278999 -56.970299
vt 27.950399 -57.026699
vt 27.950399 -56.973301
vt 28.025999 -56.990299
vt 28.030100 -57.009701
vt 28.030100 -56.990299
vt 28.025999 -57.009701
vt 28.021900 -56.990299
vt 28.021900 -57.009701
vt 28.236500 -56.968800
vt 28.236500 -57.031200
vt 27.715099 -57.009701
vt 27.711700 -56.990299
vt 27.711700 -57.009701
vt 27.715099 -56.990299
vt 27.718500 -57.009701
vt 27.718500 -56.990299
vt 27.712099 -57.091301
vt 27.716600 -57.080700
vt 27.712099 -57.082600
vt 27.710300 -57.086899
vt 27.716600 -57.093102
vt 27.721001 -57.091301
vt 27.721001 -57.082600
vt 27.722799 -57.086899
vt 27.754601 -56.959599
vt 27.759100 -56.949600
vt 27.754601 -56.951302
vt 27.752800 -56.955502
vt 27.759100 -56.961399
vt 27.763500 -56.959599
vt 27.763500 -56.951302
vt 27.765301 -56.955502
vt 28.049601 -57.027599
vt 28.049601 -57.036201
vt 28.054100 -57.037998
vt 28.047800 -57.031898
vt 28.054100 -57.025902
vt 28.058500 -57.027599
vt 28.058500 -57.036201
vt 28.060301 -57.031898
s 1
usemtl Meshpart1Mtl.007
f 1/1/1 3/2/2 2/3/1
f 4/4/3 3/2/2 1/1/1
f 5/5/4 7/6/5 6/7/4
f 8/8/5 6/7/4 7/6/5
f 7/6/5 9/9/6 8/8/5
f 10/10/6 8/8/5 9/9/6
f 13/11/5 11/12/4 12/13/4
f 11/12/4 13/11/5 14/14/5
f 13/11/5 15/15/6 14/14/5
f 15/15/6 13/11/5 16/16/6
f 17/17/7 19/4/8 18/18/9
f 19/4/8 17/17/7 20/2/10
f 22/19/11 23/10/6 21/20/11
f 24/16/6 21/20/11 23/10/6
f 25/21/12 26/22/13 27/23/13
f 25/21/12 27/23/13 28/24/12
f 25/21/12 28/24/12 29/25/14
f 29/25/14 30/26/14 25/21/12
f 30/26/14 29/25/14 31/27/14
f 31/27/14 32/28/14 30/26/14
f 35/29/15 34/30/16 33/31/16
f 34/30/16 35/29/15 36/32/15
f 36/32/15 35/29/15 37/33/6
f 38/34/6 36/32/15 37/33/6
f 39/35/17 40/36/4 41/37/17
f 42/38/4 41/37/17 40/36/4
f 44/39/17 45/40/4 43/41/17
f 45/40/4 44/39/17 46/42/4
f 47/43/18 48/44/18 49/45/18
f 47/43/18 49/45/18 50/46/18
f 50/46/18 51/47/18 47/43/18
f 48/44/18 52/48/18 49/45/18
f 51/47/18 50/46/18 53/49/18
f 53/49/18 54/50/18 51/47/18
f 54/50/18 53/49/18 55/51/18
f 55/51/18 56/52/18 54/50/18
f 56/52/18 55/51/18 57/53/18
f 57/53/18 58/54/18 56/52/18
f 58/54/18 57/53/18 59/55/18
f 60/56/18 58/54/18 59/55/18
f 60/56/18 59/55/18 61/57/19
f 62/58/20 60/56/18 61/57/19
f 62/58/20 61/57/19 63/59/21
f 63/59/21 64/60/21 62/58/20
f 64/60/21 63/59/21 65/61/18
f 66/62/18 64/60/21 65/61/18
f 66/62/18 65/61/18 67/63/22
f 68/64/22 66/62/18 67/63/22
f 69/65/23 70/66/24 71/67/24
f 69/65/23 71/67/24 72/68/23
f 69/65/23 72/68/23 73/69/25
f 73/69/25 72/68/23 74/70/11
f 75/71/18 76/72/18 77/73/18
f 78/74/18 77/73/18 76/72/18
f 76/72/18 75/71/18 48/44/18
f 76/72/18 79/75/18 78/74/18
f 80/76/18 48/44/18 75/71/18
f 81/77/18 78/74/18 79/75/18
f 48/44/18 80/76/18 52/48/18
f 78/74/18 81/77/18 82/78/18
f 80/76/18 83/79/18 52/48/18
f 81/77/18 83/79/18 82/78/18
f 83/79/18 80/76/18 84/80/18
f 82/78/18 83/79/18 84/80/18
f 85/81/26 86/82/27 87/83/26
f 86/82/27 85/81/26 88/84/27
f 87/83/26 89/85/28 85/81/26
f 90/86/29 85/81/26 89/85/28
f 91/87/30 90/86/29 89/85/28
f 90/86/29 91/87/30 92/88/31
f 91/87/30 93/89/32 92/88/31
f 93/89/32 91/87/30 94/90/33
f 93/89/32 94/90/33 95/91/34
f 96/92/35 95/91/34 94/90/33
f 97/93/36 95/91/34 96/92/35
f 95/91/34 97/93/36 98/94/37
f 97/93/36 99/95/38 98/94/37
f 99/95/38 97/93/36 100/96/39
f 99/95/38 100/96/39 101/97/40
f 100/96/39 102/98/41 101/97/40
f 102/98/41 100/96/39 103/99/42
f 103/99/42 104/100/43 102/98/41
f 104/100/43 103/99/42 105/101/44
f 106/102/45 104/100/43 105/101/44
f 104/100/43 106/102/45 107/103/46
f 108/104/45 107/103/46 106/102/45
f 107/103/46 108/104/45 109/105/45
f 110/106/47 111/107/47 112/81/47
f 113/84/47 112/81/47 111/107/47
f 112/81/47 114/86/47 110/106/47
f 115/108/47 110/106/47 114/86/47
f 116/88/47 115/108/47 114/86/47
f 115/108/47 116/88/47 117/109/47
f 118/89/47 117/109/47 116/88/47
f 117/109/47 118/89/47 119/110/47
f 120/91/47 119/110/47 118/89/47
f 119/110/47 120/91/47 121/111/47
f 122/94/47 121/111/47 120/91/47
f 121/111/47 122/94/47 123/112/47
f 124/95/47 123/112/47 122/94/47
f 123/112/47 124/95/47 125/113/47
f 126/97/47 125/113/47 124/95/47
f 125/113/47 126/97/47 127/114/47
f 128/98/48 127/114/47 126/97/47
f 127/114/47 128/98/48 129/115/49
f 130/100/50 129/115/49 128/98/48
f 130/100/50 131/116/51 129/115/49
f 132/103/52 131/116/51 130/100/50
f 131/116/51 132/103/52 133/117/53
f 132/103/52 134/118/53 133/117/53
f 134/118/53 132/103/52 135/105/53
f 136/119/54 137/120/54 138/121/54
f 137/120/54 136/119/54 139/122/54
f 137/120/54 140/123/54 138/121/54
f 140/123/54 137/120/54 141/124/54
f 140/123/54 141/124/54 142/125/54
f 142/125/54 143/126/54 140/123/54
f 144/127/54 145/128/54 146/129/54
f 145/128/54 144/127/54 147/130/54
f 145/128/54 147/130/54 148/131/54
f 145/128/54 149/132/54 146/129/54
f 150/133/54 146/129/54 149/132/54
f 149/132/54 151/134/54 150/133/54
f 152/135/54 150/133/54 151/134/54
f 152/135/54 151/134/54 153/136/54
f 153/136/54 154/137/54 152/135/54
f 153/136/54 155/138/54 154/137/54
f 156/133/54 157/129/54 158/139/54
f 159/140/54 158/139/54 157/129/54
f 158/139/54 160/135/54 156/133/54
f 160/135/54 158/139/54 161/141/54
f 161/141/54 162/137/54 160/135/54
f 162/137/54 161/141/54 163/142/54
f 164/33/55 165/143/55 166/144/55
f 165/143/55 164/33/55 167/34/55
f 168/145/56 169/146/56 170/147/57
f 170/147/57 169/146/56 171/148/57
f 172/149/58 169/146/56 168/145/56
f 169/146/56 172/149/58 173/150/59
f 174/151/60 175/152/60 176/153/61
f 175/152/60 174/151/60 177/154/60
f 178/155/60 179/156/60 180/157/60
f 178/155/60 180/157/60 181/158/60
f 183/159/62 184/160/63 182/161/17
f 185/143/63 182/161/17 184/160/63
f 186/144/64 185/143/63 184/160/63
f 186/144/64 184/160/63 187/162/63
f 188/163/17 186/144/64 187/162/63
f 188/163/17 187/162/63 189/164/17
f 192/165/65 191/166/66 190/167/66
f 191/166/66 192/165/65 193/168/65
f 194/153/67 195/157/68 196/156/69
f 195/157/68 194/153/67 197/152/69
f 198/169/70 199/9/55 200/15/55
f 198/169/70 200/15/55 201/170/70
f 198/169/70 201/170/70 202/171/71
f 202/171/71 203/172/71 198/169/70
f 204/173/72 205/174/72 206/175/72
f 204/173/72 206/175/72 207/176/72
f 208/177/73 209/178/74 210/179/74
f 211/180/75 210/179/74 209/178/74
f 210/179/74 211/180/75 212/181/75
f 209/178/74 208/177/73 213/182/76
f 214/183/77 213/182/76 208/177/73
f 213/182/76 214/183/77 215/184/77
f 216/185/78 215/184/77 214/183/77
f 215/184/77 216/185/78 217/186/78
f 218/187/79 217/186/78 216/185/78
f 217/186/78 218/187/79 219/188/79
f 220/189/80 219/188/79 218/187/79
f 219/188/79 220/189/80 221/190/81
f 222/191/82 223/192/82 224/193/82
f 222/191/82 224/193/82 225/194/82
f 226/192/83 227/195/84 228/196/85
f 226/192/83 228/196/85 229/193/83
f 230/197/78 228/196/85 227/195/84
f 228/196/85 230/197/78 231/198/78
f 232/199/86 231/198/78 230/197/78
f 231/198/78 232/199/86 233/200/86
f 234/201/75 235/202/75 236/203/75
f 235/202/75 234/201/75 237/204/75
f 238/205/75 236/203/75 235/202/75
f 238/205/75 235/202/75 239/206/75
f 239/206/75 240/207/75 238/205/75
f 240/207/75 239/206/75 241/208/75
f 242/209/75 243/210/75 244/211/75
f 243/210/75 245/212/75 244/211/75
f 246/213/71 248/214/16 247/215/71
f 249/216/16 247/215/71 248/214/16
f 250/217/87 251/218/88 252/219/89
f 253/220/90 250/217/87 252/219/89
f 250/217/87 253/220/90 254/105/90
f 251/218/88 250/217/87 255/221/91
f 256/222/92 251/218/88 255/221/91
f 251/218/88 256/222/92 257/223/93
f 258/224/94 257/223/93 256/222/92
f 258/224/94 259/225/95 257/223/93
f 260/226/96 259/225/95 258/224/94
f 260/226/96 261/227/97 259/225/95
f 260/226/96 262/228/98 261/227/97
f 262/228/98 260/226/96 263/229/99
f 264/230/100 262/228/98 263/229/99
f 262/228/98 264/230/100 265/231/101
f 265/231/101 264/230/100 266/232/102
f 267/233/103 265/231/101 266/232/102
f 267/233/103 268/234/104 265/231/101
f 269/235/105 268/234/104 267/233/103
f 269/235/105 270/236/106 268/234/104
f 269/235/105 271/237/107 270/236/106
f 271/237/107 269/235/105 272/238/108
f 272/238/108 273/239/109 271/237/107
f 273/239/109 272/238/108 274/84/110
f 275/240/111 276/221/111 277/217/111
f 277/217/111 278/241/111 275/240/111
f 278/241/111 277/217/111 279/105/111
f 276/221/111 275/240/111 280/242/112
f 281/243/111 276/221/111 280/242/112
f 276/221/111 281/243/111 282/222/111
f 283/244/111 282/222/111 281/243/111
f 282/222/111 283/244/111 284/224/111
f 285/245/111 284/224/111 283/244/111
f 284/224/111 285/245/111 286/226/111
f 287/246/111 286/226/111 285/245/111
f 286/226/111 287/246/111 288/229/111
f 289/247/111 288/229/111 287/246/111
f 288/229/111 289/247/111 290/230/111
f 291/248/111 290/230/111 289/247/111
f 290/230/111 291/248/111 292/232/111
f 293/249/113 292/232/111 291/248/111
f 292/232/111 293/249/113 294/233/114
f 293/249/113 295/235/115 294/233/114
f 295/235/115 293/249/113 296/250/116
f 297/251/117 295/235/115 296/250/116
f 295/235/115 297/251/117 298/238/118
f 299/252/117 298/238/118 297/251/117
f 298/238/118 299/252/117 300/84/117
f 301/253/119 302/254/119 303/255/119
f 302/254/119 301/253/119 304/256/119
f 302/254/119 304/256/119 305/257/119
f 305/257/119 306/258/119 302/254/119
f 305/257/119 307/259/119 306/258/119
f 307/259/119 305/257/119 308/260/119
f 309/261/119 310/262/119 311/263/119
f 312/264/119 309/261/119 311/263/119
f 313/265/119 310/262/119 309/261/119
f 310/262/119 313/265/119 314/266/119
f 315/267/119 314/266/119 313/265/119
f 314/266/119 315/267/119 316/268/119
f 317/269/119 316/268/119 315/267/119
f 316/268/119 317/269/119 318/270/119
f 318/270/119 317/269/119 319/271/119
f 319/271/119 317/269/119 320/272/119
f 321/273/119 322/268/119 323/266/119
f 321/273/119 324/274/119 322/268/119
f 325/262/119 321/273/119 323/266/119
f 321/273/119 325/262/119 326/275/119
f 327/263/119 326/275/119 325/262/119
f 326/275/119 327/263/119 328/276/119
usemtl Meshpart2Mtl.005
f 329/277/120 330/278/120 331/279/121
f 331/279/121 330/278/120 332/280/122
f 330/278/123 333/281/124 334/282/125
f 333/281/124 330/278/123 335/277/126
f 336/283/6 337/284/6 338/285/6
f 339/286/6 337/284/6 336/283/6
f 340/287/6 341/288/6 342/289/6
f 341/288/6 340/287/6 343/290/6
f 344/291/6 345/292/6 346/293/6
f 347/294/6 346/293/6 345/292/6
f 348/295/6 344/291/6 346/293/6
f 349/296/6 347/294/6 345/292/6
f 348/295/6 350/297/6 344/291/6
f 351/298/6 347/294/6 349/296/6
f 350/297/6 348/295/6 352/299/6
f 349/296/6 353/300/6 351/298/6
f 354/301/6 350/297/6 352/299/6
f 353/300/6 355/302/6 351/298/6
f 354/301/6 352/299/6 356/303/6
f 353/300/6 357/304/6 355/302/6
f 354/301/6 356/303/6 357/304/6
f 357/304/6 353/300/6 354/301/6
f 358/305/127 359/306/128 360/307/128
f 361/308/127 359/306/128 358/305/127
f 359/306/128 361/308/127 362/309/127
f 362/309/127 361/308/127 363/310/127
f 366/311/6 365/312/129 364/313/130
f 365/312/129 366/311/6 367/314/6
f 368/315/131 367/314/6 366/311/6
f 367/314/6 368/315/131 369/316/131
f 372/317/132 371/318/131 370/319/133
f 371/318/131 372/317/132 373/320/132
f 374/321/129 373/320/132 372/317/132
f 373/320/132 374/321/129 375/322/130
f 376/323/6 377/324/6 378/325/6
f 377/324/6 376/323/6 379/326/6
f 380/327/6 381/328/6 382/329/6
f 381/328/6 380/327/6 383/330/6
f 383/330/6 384/331/6 381/328/6
f 385/332/6 384/331/6 383/330/6
f 384/331/6 385/332/6 386/333/6
f 387/334/6 386/333/6 385/332/6
f 386/333/6 387/334/6 388/335/6
f 389/336/6 390/337/6 391/338/6
f 390/337/6 389/336/6 392/339/6
f 393/340/6 394/341/6 395/342/6
f 394/341/6 396/343/6 395/342/6
f 394/341/6 393/340/6 397/344/6
f 396/343/6 394/341/6 398/345/6
f 399/346/6 396/343/6 398/345/6
f 398/345/6 400/347/6 399/346/6
f 401/348/6 397/344/6 393/340/6
f 397/344/6 401/348/6 402/349/6
f 401/348/6 403/350/6 402/349/6
f 403/350/6 401/348/6 404/351/6
f 404/351/6 405/352/6 403/350/6
f 404/351/6 406/353/6 405/352/6
f 407/354/6 405/352/6 406/353/6
f 405/352/6 407/354/6 408/355/6
f 409/346/6 408/355/6 407/354/6
f 408/355/6 409/346/6 410/347/6
f 411/356/134 412/357/135 413/358/134
f 413/358/134 412/357/135 414/359/135
f 417/360/18 415/361/136 416/362/136
f 418/363/18 417/360/18 416/362/136
f 419/364/137 417/360/18 418/363/18
f 420/365/137 419/364/137 418/363/18
f 421/366/18 422/367/18 423/368/18
f 422/367/18 421/366/18 424/369/18
f 425/370/18 426/371/18 427/372/18
f 428/373/18 427/372/18 426/371/18
f 429/374/18 430/375/18 431/376/18
f 429/374/18 431/376/18 432/377/18
f 435/378/18 433/379/136 434/380/136
f 436/381/18 435/378/18 434/380/136
f 437/382/137 435/378/18 436/381/18
f 438/383/137 437/382/137 436/381/18
f 439/384/138 440/385/139 441/386/140
f 442/387/18 441/386/140 440/385/139
f 441/386/140 442/387/18 443/388/141
f 444/389/142 443/388/141 442/387/18
f 445/390/136 446/391/143 447/392/144
f 448/393/18 447/392/144 446/391/143
f 447/392/144 448/393/18 449/394/137
f 450/395/137 449/394/137 448/393/18
f 453/359/135 451/396/145 452/397/145
f 454/357/135 451/396/145 453/359/135
f 455/398/146 456/399/146 457/356/134
f 455/398/146 457/356/134 458/358/147
f 459/400/18 460/401/18 461/402/18
f 461/402/18 460/401/18 462/403/18
f 465/387/18 464/404/142 463/405/142
f 464/404/142 465/387/18 466/393/144
f 467/406/139 466/393/144 465/387/18
f 466/393/144 467/406/139 468/407/139
f 469/408/18 470/409/148 471/410/129
f 470/409/148 469/408/18 472/411/144
f 475/411/18 474/412/149 473/413/149
f 474/412/149 475/411/18 476/408/18
f 477/414/149 478/415/18 479/416/18
f 478/415/18 477/414/149 480/417/150
f 483/416/18 482/418/129 481/419/151
f 482/418/129 483/416/18 484/415/144
f 485/420/18 486/421/18 487/422/18
f 485/420/18 487/422/18 488/423/18
f 489/424/18 490/425/18 491/426/18
f 490/425/18 489/424/18 492/427/18
f 493/428/137 494/429/137 495/430/54
f 493/428/137 495/430/54 496/431/54
f 496/431/54 495/430/54 497/432/152
f 496/431/54 497/432/152 498/433/152
f 499/434/137 500/435/137 501/436/145
f 499/434/137 501/436/145 502/437/145
f 503/438/153 504/439/154 505/440/154
f 505/440/154 506/441/155 503/438/153
f 508/442/156 509/443/157 507/444/158
f 509/443/157 508/442/156 510/445/54
f 510/445/54 511/446/159 509/443/157
f 511/446/159 510/445/54 512/447/160
f 514/448/152 515/449/161 513/450/152
f 515/449/161 514/448/152 516/451/54
f 518/452/162 519/451/163 517/453/137
f 519/451/163 518/452/162 520/449/54
f 521/441/164 522/454/165 523/438/166
f 523/438/166 522/454/165 524/455/165
f 525/456/167 526/457/167 527/458/168
f 528/459/168 527/458/168 526/457/167
f 529/460/169 528/459/168 530/461/170
f 528/459/168 529/460/169 531/458/168
f 532/462/170 533/463/170 529/460/170
f 532/462/170 529/460/170 534/461/170
f 535/464/54 536/465/54 537/466/171
f 536/465/54 535/464/54 538/467/54
f 539/468/145 540/469/54 541/470/54
f 541/470/54 542/471/145 539/468/145
f 543/472/172 544/473/172 545/474/172
f 545/474/172 546/475/172 543/472/172
f 547/476/54 548/477/54 549/478/54
f 549/478/54 548/477/54 550/479/54
f 548/477/54 547/476/54 551/480/54
f 551/480/54 547/476/54 552/481/54
f 548/477/54 551/480/54 553/482/54
f 548/477/54 553/482/54 554/483/54
f 555/484/54 556/485/54 557/486/54
f 556/485/54 555/484/54 558/487/54
f 556/485/54 559/488/54 557/486/54
f 557/486/54 559/488/54 560/489/54
f 559/488/54 556/485/54 561/490/54
f 561/490/54 556/485/54 562/491/54
f 563/492/54 564/437/54 565/493/54
f 564/437/54 563/492/54 566/436/54
f 567/494/156 568/495/173 569/449/54
f 567/494/156 569/449/54 570/445/54
f 573/445/54 572/496/160 571/497/174
f 573/445/54 574/449/54 572/496/160
f 575/498/54 576/499/54 577/500/54
f 577/500/54 576/499/54 578/501/54
f 575/498/54 577/500/54 579/502/54
f 580/503/55 581/351/55 582/353/55
f 583/354/55 580/503/55 582/353/55
f 581/351/55 580/503/55 584/504/55
f 585/348/55 581/351/55 584/504/55
f 584/504/55 586/505/55 585/348/55
f 580/503/55 583/354/55 587/506/55
f 588/346/55 587/506/55 583/354/55
f 587/506/55 588/346/55 589/507/55
f 588/346/55 590/508/55 589/507/55
f 590/508/55 588/346/55 591/343/55
f 591/343/55 592/509/55 590/508/55
f 591/343/55 593/342/55 592/509/55
f 594/340/55 592/509/55 593/342/55
f 592/509/55 594/340/55 595/510/55
f 596/348/55 595/510/55 594/340/55
f 595/510/55 596/348/55 597/505/55
f 598/508/175 599/510/176 600/507/177
f 599/510/176 598/508/175 601/509/178
f 602/505/179 600/507/177 599/510/176
f 600/507/177 602/505/179 603/504/180
f 603/504/180 604/506/158 600/507/177
f 604/506/158 603/504/180 605/503/181
f 606/511/182 607/512/182 608/513/183
f 607/512/182 606/511/182 609/514/184
f 609/514/184 606/511/182 610/515/184
f 609/514/184 610/515/184 611/516/185
f 612/330/55 613/332/55 614/331/55
f 614/331/55 613/332/55 615/333/55
f 616/334/55 615/333/55 613/332/55
f 615/333/55 616/334/55 617/335/55
f 612/330/55 614/331/55 618/328/55
f 619/327/55 612/330/55 618/328/55
f 619/327/55 618/328/55 620/329/55
f 621/336/55 622/339/55 623/337/55
f 621/336/55 623/337/55 624/338/55
f 627/314/55 626/315/186 625/316/186
f 626/315/186 627/314/55 628/311/55
f 629/312/150 628/311/55 627/314/55
f 628/311/55 629/312/150 630/313/150
f 633/320/187 632/321/150 631/322/150
f 632/321/150 633/320/187 634/317/187
f 635/318/186 634/317/187 633/320/187
f 634/317/187 635/318/186 636/319/186
f 637/325/55 638/326/55 639/324/55
f 638/326/55 637/325/55 640/323/55
f 641/304/55 642/301/55 643/303/55
f 642/301/55 644/299/55 643/303/55
f 642/301/55 641/304/55 645/300/55
f 642/301/55 646/297/55 644/299/55
f 645/300/55 641/304/55 647/302/55
f 646/297/55 648/295/55 644/299/55
f 649/298/55 645/300/55 647/302/55
f 650/291/55 648/295/55 646/297/55
f 651/296/55 645/300/55 649/298/55
f 648/295/55 650/291/55 652/293/55
f 653/294/55 651/296/55 649/298/55
f 650/291/55 654/292/55 652/293/55
f 651/296/55 653/294/55 654/292/55
f 653/294/55 652/293/55 654/292/55
f 655/286/55 656/284/55 657/283/55
f 657/283/55 656/284/55 658/285/55
f 659/288/55 660/287/55 661/290/55
f 660/287/55 659/288/55 662/289/55
f 663/278/188 664/517/189 665/518/189
f 663/278/188 665/518/189 666/277/188
f 663/278/190 667/277/190 668/281/58
f 669/282/191 663/278/190 668/281/58
f 670/519/192 671/520/193 672/521/193
f 672/521/193 671/520/193 673/522/192
f 674/523/194 675/524/194 676/525/194
f 675/524/194 677/526/194 676/525/194
f 678/527/195 679/528/196 680/529/197
f 681/530/198 678/527/195 680/529/197
f 678/527/195 681/530/198 682/531/198
f 679/528/196 678/527/195 683/532/199
f 679/528/196 683/532/199 684/533/200
f 685/534/200 684/533/200 683/532/199
f 686/535/75 687/536/75 688/537/75
f 688/537/75 687/536/75 689/538/75
f 691/539/152 690/540/152 692/541/75
f 691/539/152 692/541/75 693/542/75
f 693/542/75 692/541/75 694/543/201
f 693/542/75 694/543/201 695/544/201
f 697/545/202 698/546/203 696/547/204
f 698/546/203 697/545/202 699/548/75
f 699/548/75 700/549/205 698/546/203
f 700/549/205 699/548/75 701/550/206
f 702/551/75 703/552/152 704/553/207
f 703/552/152 702/551/75 705/554/152
f 704/553/207 706/555/201 702/551/75
f 706/555/201 704/553/207 707/556/201
f 710/548/208 709/557/206 708/558/206
f 710/548/208 711/553/75 709/557/206
f 712/559/202 711/553/75 710/548/208
f 712/559/202 713/560/202 711/553/75
f 716/561/209 715/562/210 714/563/131
f 715/562/210 716/561/209 717/564/211
f 718/565/186 717/564/211 716/561/209
f 717/564/211 718/565/186 719/566/212
f 722/567/75 721/568/212 720/569/186
f 721/568/212 722/567/75 723/570/75
f 724/571/210 723/570/75 722/567/75
f 723/570/75 724/571/210 725/572/210
f 726/573/213 727/574/213 728/575/214
f 727/574/213 726/573/213 729/576/215
f 730/577/75 731/578/75 732/579/75
f 732/579/75 731/578/75 733/580/75
f 734/581/119 735/582/136 736/583/216
f 735/582/136 734/581/119 737/584/136
f 738/585/201 740/583/119 739/586/201
f 740/583/119 738/585/201 741/581/119
f 742/587/146 743/588/136 744/589/146
f 743/588/136 742/587/146 745/590/136
f 746/591/217 747/592/218 748/593/219
f 747/592/218 746/591/217 749/594/217
f 750/595/220 751/596/221 752/597/222
f 751/596/221 750/595/220 753/598/223
f 755/599/224 756/598/225 754/600/226
f 756/598/225 755/599/224 757/596/119
f 759/601/201 760/602/119 758/603/201
f 760/602/119 759/601/201 761/604/119
f 761/604/119 762/605/136 760/602/119
f 762/605/136 761/604/119 763/606/136
f 764/607/227 765/592/228 766/608/227
f 765/592/228 764/607/227 767/593/229
f 768/609/230 769/610/231 770/611/230
f 769/610/231 768/609/230 771/612/231
f 769/610/231 772/613/232 773/614/232
f 772/613/232 769/610/231 774/612/231
f 775/615/232 776/614/233 772/613/233
f 776/614/233 775/615/232 777/616/233
f 778/617/119 779/618/119 780/619/119
f 779/618/119 778/617/119 781/620/119
f 782/621/146 784/622/119 783/623/146
f 784/622/119 782/621/146 785/624/119
f 786/625/234 787/626/234 788/627/234
f 787/626/234 786/625/234 789/628/234
f 790/629/119 791/630/119 792/631/119
f 791/630/119 790/629/119 793/632/119
f 794/633/119 790/629/119 792/631/119
f 794/633/119 792/631/119 795/634/119
f 790/629/119 794/633/119 796/635/119
f 790/629/119 796/635/119 797/636/119
f 798/637/119 799/638/119 800/639/119
f 798/637/119 800/639/119 801/640/119
f 802/641/119 799/638/119 798/637/119
f 799/638/119 802/641/119 803/642/119
f 798/637/119 804/643/119 802/641/119
f 804/643/119 798/637/119 805/644/119
f 806/645/119 807/589/119 808/587/119
f 808/587/119 809/646/119 806/645/119
f 812/596/119 811/647/222 810/648/222
f 812/596/119 813/604/119 811/647/222
f 814/649/224 813/604/119 812/596/119
f 814/649/224 815/650/224 813/604/119
f 816/651/119 817/652/119 818/653/119
f 818/653/119 817/652/119 819/654/119
f 816/651/119 818/653/119 820/655/119
f 1014/656/235 1015/657/6 1016/658/6
f 1015/657/6 1014/656/235 1017/659/236
f 1014/656/235 1018/660/237 1017/659/236
f 1018/660/237 1014/656/235 1019/661/237
f 1020/662/238 1018/660/237 1019/661/237
f 1018/660/237 1020/662/238 1021/663/238
f 1024/664/239 1023/665/240 1022/666/241
f 1023/665/240 1024/664/239 1025/667/239
f 1026/668/242 1025/667/239 1024/664/239
f 1025/667/239 1026/668/242 1027/669/242
f 1028/670/243 1029/671/244 1030/672/244
f 1031/673/245 1030/672/244 1029/671/244
f 1030/672/244 1031/673/245 1032/674/245
f 1028/670/243 1030/672/244 1033/675/243
f 1034/676/246 1035/677/247 1036/678/246
f 1035/677/247 1034/676/246 1037/679/248
f 1036/678/246 1035/677/247 1038/680/246
f 1036/678/246 1038/680/246 1039/681/249
f 1037/679/248 1040/682/250 1035/677/247
f 1040/682/250 1037/679/248 1041/683/251
f 1041/683/251 1042/684/54 1040/682/250
f 1042/684/54 1041/683/251 1043/685/54
f 1043/685/54 1044/686/54 1042/684/54
f 1044/686/54 1043/685/54 1045/687/54
f 1045/687/54 1046/688/54 1044/686/54
f 1046/688/54 1045/687/54 1047/689/54
f 1048/657/55 1049/658/55 1050/690/55
f 1050/690/55 1049/658/55 1051/691/55
f 1052/692/252 1053/693/252 1054/694/252
f 1054/694/252 1053/693/252 1055/695/252
f 1057/656/253 1058/660/254 1056/659/253
f 1058/660/254 1057/656/253 1059/661/254
f 1058/660/254 1059/661/254 1060/696/58
f 1061/697/58 1058/660/254 1060/696/58
f 1061/697/58 1060/696/58 1062/698/255
f 1063/699/255 1061/697/58 1062/698/255
f 1065/700/255 1064/701/255 1066/702/256
f 1067/703/257 1065/700/255 1066/702/256
f 1068/704/258 1069/676/259 1070/705/258
f 1071/706/260 1069/676/259 1068/704/258
f 1069/676/259 1071/706/260 1072/678/261
f 1071/706/260 1073/707/262 1072/678/261
f 1073/707/262 1071/706/260 1074/708/263
f 1073/707/262 1074/708/263 1075/709/264
f 1076/710/119 1075/709/264 1074/708/263
f 1075/709/264 1076/710/119 1077/711/119
f 1078/712/119 1077/711/119 1076/710/119
f 1077/711/119 1078/712/119 1079/713/119
f 1078/712/119 1080/714/119 1079/713/119
f 1081/715/119 1079/713/119 1080/714/119
usemtl Meshpart3Mtl.002
f 821/716/265 822/717/266 823/718/266
f 822/717/266 821/716/265 824/719/265
f 825/720/267 826/719/268 827/716/265
f 826/719/268 825/720/267 828/721/267
f 829/722/269 830/723/270 831/724/269
f 830/723/270 829/722/269 832/725/270
f 830/723/270 833/726/271 834/727/271
f 833/726/271 830/723/270 835/725/270
f 838/728/6 837/729/129 836/730/129
f 837/729/129 838/728/6 839/731/272
f 840/732/131 839/731/272 838/728/6
f 839/731/272 840/732/131 841/733/131
f 842/734/273 843/735/274 844/736/275
f 843/735/274 842/734/273 845/737/276
f 847/737/276 846/738/277 848/739/277
f 846/738/277 847/737/276 849/734/278
f 852/740/272 851/741/131 850/742/131
f 851/741/131 852/740/272 853/743/272
f 854/744/129 853/743/272 852/740/272
f 853/743/272 854/744/129 855/745/129
f 856/746/18 857/747/279 858/748/279
f 857/747/279 856/746/18 859/749/18
f 860/750/280 861/751/18 862/752/18
f 861/751/18 860/750/280 863/753/280
f 864/754/18 865/755/281 866/756/281
f 865/755/281 864/754/18 867/757/282
f 868/758/283 869/749/18 870/746/18
f 869/749/18 868/758/283 871/759/283
f 872/760/18 873/761/151 874/762/151
f 873/761/151 872/760/18 875/763/18
f 878/763/18 877/764/149 876/765/149
f 877/764/149 878/763/18 879/760/18
f 880/766/284 881/751/18 882/767/284
f 881/751/18 880/766/284 883/752/282
f 884/768/285 885/757/18 886/754/18
f 885/757/18 884/768/285 887/769/285
f 888/770/149 889/771/286 890/772/18
f 889/771/286 888/770/149 891/773/149
f 894/772/18 893/774/151 892/775/151
f 893/774/151 894/772/18 895/771/18
f 896/776/287 897/777/287 898/778/288
f 896/776/287 899/779/289 897/777/287
f 900/780/287 899/779/289 896/776/287
f 899/779/289 900/780/287 901/781/287
f 901/781/287 902/782/287 899/779/289
f 902/782/287 901/781/287 903/783/287
f 904/784/290 905/785/290 906/786/290
f 905/785/290 904/784/290 907/787/291
f 908/788/290 907/787/291 904/784/290
f 907/787/291 908/788/290 909/789/290
f 909/789/290 910/790/290 907/787/291
f 910/790/290 909/789/290 911/791/290
f 912/792/170 913/793/170 914/794/170
f 915/795/170 913/793/170 912/792/170
f 913/793/170 915/795/170 916/796/170
f 915/795/170 917/797/170 916/796/170
f 917/797/170 915/795/170 918/798/170
f 917/797/170 918/798/170 919/799/170
f 920/735/292 921/734/293 922/737/294
f 921/734/293 920/735/292 923/736/292
f 924/737/295 925/738/296 926/739/296
f 925/738/296 924/737/295 927/734/295
f 928/717/297 929/716/298 930/719/298
f 929/716/298 928/717/297 931/718/299
f 934/731/300 933/732/186 932/733/186
f 933/732/186 934/731/300 935/728/55
f 936/729/150 935/728/55 934/731/300
f 935/728/55 936/729/150 937/730/150
f 938/722/301 939/723/302 940/724/301
f 939/723/302 938/722/301 941/725/302
f 939/723/302 942/726/303 943/727/283
f 939/723/302 944/725/302 942/726/303
f 945/719/304 946/720/305 947/721/305
f 946/720/305 945/719/304 948/716/306
f 951/743/300 950/744/150 949/745/150
f 950/744/150 951/743/300 952/740/300
f 953/741/186 952/740/300 951/743/300
f 952/740/300 953/741/186 954/742/186
f 956/800/307 955/801/269 957/802/269
f 955/801/269 956/800/307 958/803/75
f 959/804/75 960/805/308 961/806/308
f 960/805/308 959/804/75 962/807/75
f 963/808/309 964/809/307 965/810/307
f 964/809/307 963/808/309 966/811/309
f 964/809/75 967/812/310 968/810/75
f 967/812/310 964/809/75 969/813/310
f 970/814/311 971/807/75 972/804/75
f 971/807/75 970/814/311 973/815/311
f 976/816/307 975/817/210 974/818/210
f 975/817/210 976/816/307 977/819/312
f 978/820/212 977/819/312 976/816/307
f 977/819/312 978/820/212 979/821/212
f 980/803/75 981/822/313 982/823/314
f 981/822/313 980/803/75 983/800/75
f 986/824/307 985/825/186 984/826/212
f 985/825/186 986/824/307 987/827/75
f 988/828/210 987/827/75 986/824/307
f 987/827/75 988/828/210 989/829/131
f 990/830/315 991/831/316 992/832/315
f 990/830/315 992/832/315 993/833/315
f 991/831/316 990/830/315 994/834/315
f 995/835/315 991/831/316 994/834/315
f 991/831/316 995/835/315 996/836/315
f 996/836/315 995/835/315 997/837/315
f 998/838/317 999/839/317 1000/840/317
f 998/838/317 1000/840/317 1001/841/317
f 999/839/317 998/838/317 1002/842/317
f 1003/843/317 999/839/317 1002/842/317
f 999/839/317 1003/843/317 1004/844/317
f 1004/844/317 1003/843/317 1005/845/317
f 1006/846/232 1007/847/232 1008/848/232
f 1007/847/232 1006/846/232 1009/849/232
f 1006/846/232 1008/848/232 1010/850/232
f 1010/850/232 1008/848/232 1011/851/232
f 1011/851/232 1008/848/232 1012/852/232
f 1011/851/232 1012/852/232 1013/853/232
